<svg xmlns="http://www.w3.org/2000/svg" viewBox="0 0 260 168" role="img" aria-label="IronDome emblem">
  <defs>
    <linearGradient id="a" x1="0" y1="0" x2="0" y2="1">
      <stop offset="0%" stop-color="#c6dc68"/>
      <stop offset="100%" stop-color="#9bae4a" stop-opacity=".08"/>
    </linearGradient>
    <linearGradient id="g" x1="0" y1="0" x2="1" y2="0">
      <stop offset="0%" stop-color="#2b383d" stop-opacity="0"/>
      <stop offset="20%" stop-color="#2b383d"/>
      <stop offset="80%" stop-color="#2b383d"/>
      <stop offset="100%" stop-color="#2b383d" stop-opacity="0"/>
    </linearGradient>
  </defs>
  <g fill="none" stroke="url(#a)" stroke-width="1.6" stroke-linecap="round">
    <path d="M14 140 A116 116 0 0 1 246 140"/>
    <path d="M44 140 A86 86 0 0 1 216 140"/>
    <path d="M74 140 A56 56 0 0 1 186 140"/>
  </g>
  <line x1="4" y1="140" x2="256" y2="140" stroke="url(#g)" stroke-width="1.4"/>
  <g stroke="#2b383d" stroke-width="1.2">
    <line x1="30" y1="140" x2="30" y2="148"/><line x1="60" y1="140" x2="60" y2="148"/>
    <line x1="90" y1="140" x2="90" y2="148"/><line x1="120" y1="140" x2="120" y2="150"/>
    <line x1="150" y1="140" x2="150" y2="148"/><line x1="180" y1="140" x2="180" y2="148"/>
    <line x1="210" y1="140" x2="210" y2="148"/>
  </g>
  <rect x="106" y="112" width="48" height="28" fill="#10171a" stroke="#c6dc68" stroke-width="1.4"/>
  <circle cx="130" cy="126" r="4" fill="#c6dc68"/>
</svg>
