<svg class="rich-terminal" viewBox="0 0 1238 830.8" xmlns="http://www.w3.org/2000/svg">
    
    <style>

    
    

    .terminal-2924205350-matrix {
        font-family: Fira Code, monospace;
        font-size: 20px;
        line-height: 24.4px;
        font-variant-east-asian: full-width;
    }

    .terminal-2924205350-title {
        font-size: 18px;
        font-weight: bold;
        font-family: arial;
    }

    .terminal-2924205350-r1 { fill: #c5c8c6 }
.terminal-2924205350-r2 { fill: #00ff41;font-weight: bold }
.terminal-2924205350-r3 { fill: #1e2d3d }
.terminal-2924205350-r4 { fill: #4a5568 }
.terminal-2924205350-r5 { fill: #e2e8f0 }
.terminal-2924205350-r6 { fill: #94a3b8 }
.terminal-2924205350-r7 { fill: #373a3f }
    </style>

    <defs>
    <clipPath id="terminal-2924205350-clip-terminal">
      <rect x="0" y="0" width="1219.0" height="779.8" />
    </clipPath>
    <clipPath id="terminal-2924205350-line-0">
    <rect x="0" y="1.5" width="1220" height="24.65"/>
            </clipPath>
<clipPath id="terminal-2924205350-line-1">
    <rect x="0" y="25.9" width="1220" height="24.65"/>
            </clipPath>
<clipPath id="terminal-2924205350-line-2">
    <rect x="0" y="50.3" width="1220" height="24.65"/>
            </clipPath>
<clipPath id="terminal-2924205350-line-3">
    <rect x="0" y="74.7" width="1220" height="24.65"/>
            </clipPath>
<clipPath id="terminal-2924205350-line-4">
    <rect x="0" y="99.1" width="1220" height="24.65"/>
            </clipPath>
<clipPath id="terminal-2924205350-line-5">
    <rect x="0" y="123.5" width="1220" height="24.65"/>
            </clipPath>
<clipPath id="terminal-2924205350-line-6">
    <rect x="0" y="147.9" width="1220" height="24.65"/>
            </clipPath>
<clipPath id="terminal-2924205350-line-7">
    <rect x="0" y="172.3" width="1220" height="24.65"/>
            </clipPath>
<clipPath id="terminal-2924205350-line-8">
    <rect x="0" y="196.7" width="1220" height="24.65"/>
            </clipPath>
<clipPath id="terminal-2924205350-line-9">
    <rect x="0" y="221.1" width="1220" height="24.65"/>
            </clipPath>
<clipPath id="terminal-2924205350-line-10">
    <rect x="0" y="245.5" width="1220" height="24.65"/>
            </clipPath>
<clipPath id="terminal-2924205350-line-11">
    <rect x="0" y="269.9" width="1220" height="24.65"/>
            </clipPath>
<clipPath id="terminal-2924205350-line-12">
    <rect x="0" y="294.3" width="1220" height="24.65"/>
            </clipPath>
<clipPath id="terminal-2924205350-line-13">
    <rect x="0" y="318.7" width="1220" height="24.65"/>
            </clipPath>
<clipPath id="terminal-2924205350-line-14">
    <rect x="0" y="343.1" width="1220" height="24.65"/>
            </clipPath>
<clipPath id="terminal-2924205350-line-15">
    <rect x="0" y="367.5" width="1220" height="24.65"/>
            </clipPath>
<clipPath id="terminal-2924205350-line-16">
    <rect x="0" y="391.9" width="1220" height="24.65"/>
            </clipPath>
<clipPath id="terminal-2924205350-line-17">
    <rect x="0" y="416.3" width="1220" height="24.65"/>
            </clipPath>
<clipPath id="terminal-2924205350-line-18">
    <rect x="0" y="440.7" width="1220" height="24.65"/>
            </clipPath>
<clipPath id="terminal-2924205350-line-19">
    <rect x="0" y="465.1" width="1220" height="24.65"/>
            </clipPath>
<clipPath id="terminal-2924205350-line-20">
    <rect x="0" y="489.5" width="1220" height="24.65"/>
            </clipPath>
<clipPath id="terminal-2924205350-line-21">
    <rect x="0" y="513.9" width="1220" height="24.65"/>
            </clipPath>
<clipPath id="terminal-2924205350-line-22">
    <rect x="0" y="538.3" width="1220" height="24.65"/>
            </clipPath>
<clipPath id="terminal-2924205350-line-23">
    <rect x="0" y="562.7" width="1220" height="24.65"/>
            </clipPath>
<clipPath id="terminal-2924205350-line-24">
    <rect x="0" y="587.1" width="1220" height="24.65"/>
            </clipPath>
<clipPath id="terminal-2924205350-line-25">
    <rect x="0" y="611.5" width="1220" height="24.65"/>
            </clipPath>
<clipPath id="terminal-2924205350-line-26">
    <rect x="0" y="635.9" width="1220" height="24.65"/>
            </clipPath>
<clipPath id="terminal-2924205350-line-27">
    <rect x="0" y="660.3" width="1220" height="24.65"/>
            </clipPath>
<clipPath id="terminal-2924205350-line-28">
    <rect x="0" y="684.7" width="1220" height="24.65"/>
            </clipPath>
<clipPath id="terminal-2924205350-line-29">
    <rect x="0" y="709.1" width="1220" height="24.65"/>
            </clipPath>
<clipPath id="terminal-2924205350-line-30">
    <rect x="0" y="733.5" width="1220" height="24.65"/>
            </clipPath>
    </defs>

    <rect fill="#292929" stroke="rgba(255,255,255,0.35)" stroke-width="1" x="1" y="1" width="1236" height="828.8" rx="8"/><text class="terminal-2924205350-title" fill="#c5c8c6" text-anchor="middle" x="618" y="27">IronDome</text>
            <g transform="translate(26,22)">
            <circle cx="0" cy="0" r="7" fill="#ff5f57"/>
            <circle cx="22" cy="0" r="7" fill="#febc2e"/>
            <circle cx="44" cy="0" r="7" fill="#28c840"/>
            </g>
        
    <g transform="translate(9, 41)" clip-path="url(#terminal-2924205350-clip-terminal)">
    <rect fill="#0a0d0f" x="0" y="1.5" width="1220" height="24.65" shape-rendering="crispEdges"/><rect fill="#0a0d0f" x="0" y="25.9" width="48.8" height="24.65" shape-rendering="crispEdges"/><rect fill="#0d1117" x="48.8" y="25.9" width="24.4" height="24.65" shape-rendering="crispEdges"/><rect fill="#0d1117" x="73.2" y="25.9" width="73.2" height="24.65" shape-rendering="crispEdges"/><rect fill="#0d1117" x="146.4" y="25.9" width="366" height="24.65" shape-rendering="crispEdges"/><rect fill="#0d1117" x="512.4" y="25.9" width="183" height="24.65" shape-rendering="crispEdges"/><rect fill="#0d1117" x="695.4" y="25.9" width="353.8" height="24.65" shape-rendering="crispEdges"/><rect fill="#0d1117" x="1049.2" y="25.9" width="97.6" height="24.65" shape-rendering="crispEdges"/><rect fill="#0d1117" x="1146.8" y="25.9" width="24.4" height="24.65" shape-rendering="crispEdges"/><rect fill="#0a0d0f" x="1171.2" y="25.9" width="48.8" height="24.65" shape-rendering="crispEdges"/><rect fill="#0a0d0f" x="0" y="50.3" width="48.8" height="24.65" shape-rendering="crispEdges"/><rect fill="#0a0d0f" x="48.8" y="50.3" width="1122.4" height="24.65" shape-rendering="crispEdges"/><rect fill="#0a0d0f" x="1171.2" y="50.3" width="48.8" height="24.65" shape-rendering="crispEdges"/><rect fill="#0a0d0f" x="0" y="74.7" width="48.8" height="24.65" shape-rendering="crispEdges"/><rect fill="#0a0d0f" x="48.8" y="74.7" width="1122.4" height="24.65" shape-rendering="crispEdges"/><rect fill="#0a0d0f" x="1171.2" y="74.7" width="48.8" height="24.65" shape-rendering="crispEdges"/><rect fill="#0a0d0f" x="0" y="99.1" width="48.8" height="24.65" shape-rendering="crispEdges"/><rect fill="#0a0d0f" x="48.8" y="99.1" width="48.8" height="24.65" shape-rendering="crispEdges"/><rect fill="#0a0d0f" x="97.6" y="99.1" width="1024.8" height="24.65" shape-rendering="crispEdges"/><rect fill="#0a0d0f" x="1122.4" y="99.1" width="48.8" height="24.65" shape-rendering="crispEdges"/><rect fill="#0a0d0f" x="1171.2" y="99.1" width="48.8" height="24.65" shape-rendering="crispEdges"/><rect fill="#0a0d0f" x="0" y="123.5" width="48.8" height="24.65" shape-rendering="crispEdges"/><rect fill="#0a0d0f" x="48.8" y="123.5" width="48.8" height="24.65" shape-rendering="crispEdges"/><rect fill="#111518" x="97.6" y="123.5" width="12.2" height="24.65" shape-rendering="crispEdges"/><rect fill="#111518" x="109.8" y="123.5" width="1000.4" height="24.65" shape-rendering="crispEdges"/><rect fill="#111518" x="1110.2" y="123.5" width="12.2" height="24.65" shape-rendering="crispEdges"/><rect fill="#0a0d0f" x="1122.4" y="123.5" width="48.8" height="24.65" shape-rendering="crispEdges"/><rect fill="#0a0d0f" x="1171.2" y="123.5" width="48.8" height="24.65" shape-rendering="crispEdges"/><rect fill="#0a0d0f" x="0" y="147.9" width="48.8" height="24.65" shape-rendering="crispEdges"/><rect fill="#0a0d0f" x="48.8" y="147.9" width="48.8" height="24.65" shape-rendering="crispEdges"/><rect fill="#111518" x="97.6" y="147.9" width="12.2" height="24.65" shape-rendering="crispEdges"/><rect fill="#111518" x="109.8" y="147.9" width="1000.4" height="24.65" shape-rendering="crispEdges"/><rect fill="#111518" x="1110.2" y="147.9" width="12.2" height="24.65" shape-rendering="crispEdges"/><rect fill="#0a0d0f" x="1122.4" y="147.9" width="48.8" height="24.65" shape-rendering="crispEdges"/><rect fill="#0a0d0f" x="1171.2" y="147.9" width="48.8" height="24.65" shape-rendering="crispEdges"/><rect fill="#0a0d0f" x="0" y="172.3" width="48.8" height="24.65" shape-rendering="crispEdges"/><rect fill="#0a0d0f" x="48.8" y="172.3" width="48.8" height="24.65" shape-rendering="crispEdges"/><rect fill="#111518" x="97.6" y="172.3" width="12.2" height="24.65" shape-rendering="crispEdges"/><rect fill="#111518" x="109.8" y="172.3" width="24.4" height="24.65" shape-rendering="crispEdges"/><rect fill="#111518" x="134.2" y="172.3" width="61" height="24.65" shape-rendering="crispEdges"/><rect fill="#111518" x="195.2" y="172.3" width="890.6" height="24.65" shape-rendering="crispEdges"/><rect fill="#111518" x="1085.8" y="172.3" width="24.4" height="24.65" shape-rendering="crispEdges"/><rect fill="#111518" x="1110.2" y="172.3" width="12.2" height="24.65" shape-rendering="crispEdges"/><rect fill="#0a0d0f" x="1122.4" y="172.3" width="48.8" height="24.65" shape-rendering="crispEdges"/><rect fill="#0a0d0f" x="1171.2" y="172.3" width="48.8" height="24.65" shape-rendering="crispEdges"/><rect fill="#0a0d0f" x="0" y="196.7" width="48.8" height="24.65" shape-rendering="crispEdges"/><rect fill="#0a0d0f" x="48.8" y="196.7" width="48.8" height="24.65" shape-rendering="crispEdges"/><rect fill="#111518" x="97.6" y="196.7" width="12.2" height="24.65" shape-rendering="crispEdges"/><rect fill="#111518" x="109.8" y="196.7" width="24.4" height="24.65" shape-rendering="crispEdges"/><rect fill="#111518" x="134.2" y="196.7" width="951.6" height="24.65" shape-rendering="crispEdges"/><rect fill="#111518" x="1085.8" y="196.7" width="24.4" height="24.65" shape-rendering="crispEdges"/><rect fill="#111518" x="1110.2" y="196.7" width="12.2" height="24.65" shape-rendering="crispEdges"/><rect fill="#0a0d0f" x="1122.4" y="196.7" width="48.8" height="24.65" shape-rendering="crispEdges"/><rect fill="#0a0d0f" x="1171.2" y="196.7" width="48.8" height="24.65" shape-rendering="crispEdges"/><rect fill="#0a0d0f" x="0" y="221.1" width="48.8" height="24.65" shape-rendering="crispEdges"/><rect fill="#0a0d0f" x="48.8" y="221.1" width="48.8" height="24.65" shape-rendering="crispEdges"/><rect fill="#111518" x="97.6" y="221.1" width="12.2" height="24.65" shape-rendering="crispEdges"/><rect fill="#111518" x="109.8" y="221.1" width="1000.4" height="24.65" shape-rendering="crispEdges"/><rect fill="#111518" x="1110.2" y="221.1" width="12.2" height="24.65" shape-rendering="crispEdges"/><rect fill="#0a0d0f" x="1122.4" y="221.1" width="48.8" height="24.65" shape-rendering="crispEdges"/><rect fill="#0a0d0f" x="1171.2" y="221.1" width="48.8" height="24.65" shape-rendering="crispEdges"/><rect fill="#0a0d0f" x="0" y="245.5" width="48.8" height="24.65" shape-rendering="crispEdges"/><rect fill="#0a0d0f" x="48.8" y="245.5" width="48.8" height="24.65" shape-rendering="crispEdges"/><rect fill="#111518" x="97.6" y="245.5" width="12.2" height="24.65" shape-rendering="crispEdges"/><rect fill="#111518" x="109.8" y="245.5" width="1000.4" height="24.65" shape-rendering="crispEdges"/><rect fill="#111518" x="1110.2" y="245.5" width="12.2" height="24.65" shape-rendering="crispEdges"/><rect fill="#0a0d0f" x="1122.4" y="245.5" width="48.8" height="24.65" shape-rendering="crispEdges"/><rect fill="#0a0d0f" x="1171.2" y="245.5" width="48.8" height="24.65" shape-rendering="crispEdges"/><rect fill="#0a0d0f" x="0" y="269.9" width="48.8" height="24.65" shape-rendering="crispEdges"/><rect fill="#0a0d0f" x="48.8" y="269.9" width="48.8" height="24.65" shape-rendering="crispEdges"/><rect fill="#0a0d0f" x="97.6" y="269.9" width="1024.8" height="24.65" shape-rendering="crispEdges"/><rect fill="#0a0d0f" x="1122.4" y="269.9" width="48.8" height="24.65" shape-rendering="crispEdges"/><rect fill="#0a0d0f" x="1171.2" y="269.9" width="48.8" height="24.65" shape-rendering="crispEdges"/><rect fill="#0a0d0f" x="0" y="294.3" width="48.8" height="24.65" shape-rendering="crispEdges"/><rect fill="#0a0d0f" x="48.8" y="294.3" width="48.8" height="24.65" shape-rendering="crispEdges"/><rect fill="#111518" x="97.6" y="294.3" width="12.2" height="24.65" shape-rendering="crispEdges"/><rect fill="#111518" x="109.8" y="294.3" width="1000.4" height="24.65" shape-rendering="crispEdges"/><rect fill="#111518" x="1110.2" y="294.3" width="12.2" height="24.65" shape-rendering="crispEdges"/><rect fill="#0a0d0f" x="1122.4" y="294.3" width="48.8" height="24.65" shape-rendering="crispEdges"/><rect fill="#0a0d0f" x="1171.2" y="294.3" width="48.8" height="24.65" shape-rendering="crispEdges"/><rect fill="#0a0d0f" x="0" y="318.7" width="48.8" height="24.65" shape-rendering="crispEdges"/><rect fill="#0a0d0f" x="48.8" y="318.7" width="48.8" height="24.65" shape-rendering="crispEdges"/><rect fill="#111518" x="97.6" y="318.7" width="12.2" height="24.65" shape-rendering="crispEdges"/><rect fill="#111518" x="109.8" y="318.7" width="1000.4" height="24.65" shape-rendering="crispEdges"/><rect fill="#111518" x="1110.2" y="318.7" width="12.2" height="24.65" shape-rendering="crispEdges"/><rect fill="#0a0d0f" x="1122.4" y="318.7" width="48.8" height="24.65" shape-rendering="crispEdges"/><rect fill="#0a0d0f" x="1171.2" y="318.7" width="48.8" height="24.65" shape-rendering="crispEdges"/><rect fill="#0a0d0f" x="0" y="343.1" width="48.8" height="24.65" shape-rendering="crispEdges"/><rect fill="#0a0d0f" x="48.8" y="343.1" width="48.8" height="24.65" shape-rendering="crispEdges"/><rect fill="#111518" x="97.6" y="343.1" width="12.2" height="24.65" shape-rendering="crispEdges"/><rect fill="#111518" x="109.8" y="343.1" width="24.4" height="24.65" shape-rendering="crispEdges"/><rect fill="#111518" x="134.2" y="343.1" width="97.6" height="24.65" shape-rendering="crispEdges"/><rect fill="#111518" x="231.8" y="343.1" width="854" height="24.65" shape-rendering="crispEdges"/><rect fill="#111518" x="1085.8" y="343.1" width="24.4" height="24.65" shape-rendering="crispEdges"/><rect fill="#111518" x="1110.2" y="343.1" width="12.2" height="24.65" shape-rendering="crispEdges"/><rect fill="#0a0d0f" x="1122.4" y="343.1" width="48.8" height="24.65" shape-rendering="crispEdges"/><rect fill="#0a0d0f" x="1171.2" y="343.1" width="48.8" height="24.65" shape-rendering="crispEdges"/><rect fill="#0a0d0f" x="0" y="367.5" width="48.8" height="24.65" shape-rendering="crispEdges"/><rect fill="#0a0d0f" x="48.8" y="367.5" width="48.8" height="24.65" shape-rendering="crispEdges"/><rect fill="#111518" x="97.6" y="367.5" width="12.2" height="24.65" shape-rendering="crispEdges"/><rect fill="#111518" x="109.8" y="367.5" width="24.4" height="24.65" shape-rendering="crispEdges"/><rect fill="#111518" x="134.2" y="367.5" width="951.6" height="24.65" shape-rendering="crispEdges"/><rect fill="#111518" x="1085.8" y="367.5" width="24.4" height="24.65" shape-rendering="crispEdges"/><rect fill="#111518" x="1110.2" y="367.5" width="12.2" height="24.65" shape-rendering="crispEdges"/><rect fill="#0a0d0f" x="1122.4" y="367.5" width="48.8" height="24.65" shape-rendering="crispEdges"/><rect fill="#0a0d0f" x="1171.2" y="367.5" width="48.8" height="24.65" shape-rendering="crispEdges"/><rect fill="#0a0d0f" x="0" y="391.9" width="48.8" height="24.65" shape-rendering="crispEdges"/><rect fill="#0a0d0f" x="48.8" y="391.9" width="48.8" height="24.65" shape-rendering="crispEdges"/><rect fill="#111518" x="97.6" y="391.9" width="12.2" height="24.65" shape-rendering="crispEdges"/><rect fill="#111518" x="109.8" y="391.9" width="24.4" height="24.65" shape-rendering="crispEdges"/><rect fill="#111518" x="134.2" y="391.9" width="122" height="24.65" shape-rendering="crispEdges"/><rect fill="#111518" x="256.2" y="391.9" width="170.8" height="24.65" shape-rendering="crispEdges"/><rect fill="#111518" x="427" y="391.9" width="158.6" height="24.65" shape-rendering="crispEdges"/><rect fill="#111518" x="585.6" y="391.9" width="500.2" height="24.65" shape-rendering="crispEdges"/><rect fill="#111518" x="1085.8" y="391.9" width="24.4" height="24.65" shape-rendering="crispEdges"/><rect fill="#111518" x="1110.2" y="391.9" width="12.2" height="24.65" shape-rendering="crispEdges"/><rect fill="#0a0d0f" x="1122.4" y="391.9" width="48.8" height="24.65" shape-rendering="crispEdges"/><rect fill="#0a0d0f" x="1171.2" y="391.9" width="48.8" height="24.65" shape-rendering="crispEdges"/><rect fill="#0a0d0f" x="0" y="416.3" width="48.8" height="24.65" shape-rendering="crispEdges"/><rect fill="#0a0d0f" x="48.8" y="416.3" width="48.8" height="24.65" shape-rendering="crispEdges"/><rect fill="#111518" x="97.6" y="416.3" width="12.2" height="24.65" shape-rendering="crispEdges"/><rect fill="#111518" x="109.8" y="416.3" width="1000.4" height="24.65" shape-rendering="crispEdges"/><rect fill="#111518" x="1110.2" y="416.3" width="12.2" height="24.65" shape-rendering="crispEdges"/><rect fill="#0a0d0f" x="1122.4" y="416.3" width="48.8" height="24.65" shape-rendering="crispEdges"/><rect fill="#0a0d0f" x="1171.2" y="416.3" width="48.8" height="24.65" shape-rendering="crispEdges"/><rect fill="#0a0d0f" x="0" y="440.7" width="48.8" height="24.65" shape-rendering="crispEdges"/><rect fill="#0a0d0f" x="48.8" y="440.7" width="48.8" height="24.65" shape-rendering="crispEdges"/><rect fill="#111518" x="97.6" y="440.7" width="12.2" height="24.65" shape-rendering="crispEdges"/><rect fill="#111518" x="109.8" y="440.7" width="1000.4" height="24.65" shape-rendering="crispEdges"/><rect fill="#111518" x="1110.2" y="440.7" width="12.2" height="24.65" shape-rendering="crispEdges"/><rect fill="#0a0d0f" x="1122.4" y="440.7" width="48.8" height="24.65" shape-rendering="crispEdges"/><rect fill="#0a0d0f" x="1171.2" y="440.7" width="48.8" height="24.65" shape-rendering="crispEdges"/><rect fill="#0a0d0f" x="0" y="465.1" width="48.8" height="24.65" shape-rendering="crispEdges"/><rect fill="#0a0d0f" x="48.8" y="465.1" width="48.8" height="24.65" shape-rendering="crispEdges"/><rect fill="#0a0d0f" x="97.6" y="465.1" width="1024.8" height="24.65" shape-rendering="crispEdges"/><rect fill="#0a0d0f" x="1122.4" y="465.1" width="48.8" height="24.65" shape-rendering="crispEdges"/><rect fill="#0a0d0f" x="1171.2" y="465.1" width="48.8" height="24.65" shape-rendering="crispEdges"/><rect fill="#0a0d0f" x="0" y="489.5" width="48.8" height="24.65" shape-rendering="crispEdges"/><rect fill="#0a0d0f" x="48.8" y="489.5" width="48.8" height="24.65" shape-rendering="crispEdges"/><rect fill="#111518" x="97.6" y="489.5" width="12.2" height="24.65" shape-rendering="crispEdges"/><rect fill="#111518" x="109.8" y="489.5" width="1000.4" height="24.65" shape-rendering="crispEdges"/><rect fill="#111518" x="1110.2" y="489.5" width="12.2" height="24.65" shape-rendering="crispEdges"/><rect fill="#0a0d0f" x="1122.4" y="489.5" width="48.8" height="24.65" shape-rendering="crispEdges"/><rect fill="#0a0d0f" x="1171.2" y="489.5" width="48.8" height="24.65" shape-rendering="crispEdges"/><rect fill="#0a0d0f" x="0" y="513.9" width="48.8" height="24.65" shape-rendering="crispEdges"/><rect fill="#0a0d0f" x="48.8" y="513.9" width="48.8" height="24.65" shape-rendering="crispEdges"/><rect fill="#111518" x="97.6" y="513.9" width="12.2" height="24.65" shape-rendering="crispEdges"/><rect fill="#111518" x="109.8" y="513.9" width="1000.4" height="24.65" shape-rendering="crispEdges"/><rect fill="#111518" x="1110.2" y="513.9" width="12.2" height="24.65" shape-rendering="crispEdges"/><rect fill="#0a0d0f" x="1122.4" y="513.9" width="48.8" height="24.65" shape-rendering="crispEdges"/><rect fill="#0a0d0f" x="1171.2" y="513.9" width="48.8" height="24.65" shape-rendering="crispEdges"/><rect fill="#0a0d0f" x="0" y="538.3" width="48.8" height="24.65" shape-rendering="crispEdges"/><rect fill="#0a0d0f" x="48.8" y="538.3" width="48.8" height="24.65" shape-rendering="crispEdges"/><rect fill="#111518" x="97.6" y="538.3" width="12.2" height="24.65" shape-rendering="crispEdges"/><rect fill="#111518" x="109.8" y="538.3" width="24.4" height="24.65" shape-rendering="crispEdges"/><rect fill="#111518" x="134.2" y="538.3" width="85.4" height="24.65" shape-rendering="crispEdges"/><rect fill="#111518" x="219.6" y="538.3" width="866.2" height="24.65" shape-rendering="crispEdges"/><rect fill="#111518" x="1085.8" y="538.3" width="24.4" height="24.65" shape-rendering="crispEdges"/><rect fill="#111518" x="1110.2" y="538.3" width="12.2" height="24.65" shape-rendering="crispEdges"/><rect fill="#0a0d0f" x="1122.4" y="538.3" width="48.8" height="24.65" shape-rendering="crispEdges"/><rect fill="#0a0d0f" x="1171.2" y="538.3" width="48.8" height="24.65" shape-rendering="crispEdges"/><rect fill="#0a0d0f" x="0" y="562.7" width="48.8" height="24.65" shape-rendering="crispEdges"/><rect fill="#0a0d0f" x="48.8" y="562.7" width="48.8" height="24.65" shape-rendering="crispEdges"/><rect fill="#111518" x="97.6" y="562.7" width="12.2" height="24.65" shape-rendering="crispEdges"/><rect fill="#111518" x="109.8" y="562.7" width="24.4" height="24.65" shape-rendering="crispEdges"/><rect fill="#111518" x="134.2" y="562.7" width="951.6" height="24.65" shape-rendering="crispEdges"/><rect fill="#111518" x="1085.8" y="562.7" width="24.4" height="24.65" shape-rendering="crispEdges"/><rect fill="#111518" x="1110.2" y="562.7" width="12.2" height="24.65" shape-rendering="crispEdges"/><rect fill="#0a0d0f" x="1122.4" y="562.7" width="48.8" height="24.65" shape-rendering="crispEdges"/><rect fill="#0a0d0f" x="1171.2" y="562.7" width="48.8" height="24.65" shape-rendering="crispEdges"/><rect fill="#0a0d0f" x="0" y="587.1" width="48.8" height="24.65" shape-rendering="crispEdges"/><rect fill="#0a0d0f" x="48.8" y="587.1" width="48.8" height="24.65" shape-rendering="crispEdges"/><rect fill="#111518" x="97.6" y="587.1" width="12.2" height="24.65" shape-rendering="crispEdges"/><rect fill="#111518" x="109.8" y="587.1" width="24.4" height="24.65" shape-rendering="crispEdges"/><rect fill="#111518" x="134.2" y="587.1" width="109.8" height="24.65" shape-rendering="crispEdges"/><rect fill="#111518" x="244" y="587.1" width="183" height="24.65" shape-rendering="crispEdges"/><rect fill="#111518" x="427" y="587.1" width="97.6" height="24.65" shape-rendering="crispEdges"/><rect fill="#111518" x="524.6" y="587.1" width="561.2" height="24.65" shape-rendering="crispEdges"/><rect fill="#111518" x="1085.8" y="587.1" width="24.4" height="24.65" shape-rendering="crispEdges"/><rect fill="#111518" x="1110.2" y="587.1" width="12.2" height="24.65" shape-rendering="crispEdges"/><rect fill="#0a0d0f" x="1122.4" y="587.1" width="48.8" height="24.65" shape-rendering="crispEdges"/><rect fill="#0a0d0f" x="1171.2" y="587.1" width="48.8" height="24.65" shape-rendering="crispEdges"/><rect fill="#0a0d0f" x="0" y="611.5" width="48.8" height="24.65" shape-rendering="crispEdges"/><rect fill="#0a0d0f" x="48.8" y="611.5" width="48.8" height="24.65" shape-rendering="crispEdges"/><rect fill="#111518" x="97.6" y="611.5" width="12.2" height="24.65" shape-rendering="crispEdges"/><rect fill="#111518" x="109.8" y="611.5" width="1000.4" height="24.65" shape-rendering="crispEdges"/><rect fill="#111518" x="1110.2" y="611.5" width="12.2" height="24.65" shape-rendering="crispEdges"/><rect fill="#0a0d0f" x="1122.4" y="611.5" width="48.8" height="24.65" shape-rendering="crispEdges"/><rect fill="#0a0d0f" x="1171.2" y="611.5" width="48.8" height="24.65" shape-rendering="crispEdges"/><rect fill="#0a0d0f" x="0" y="635.9" width="48.8" height="24.65" shape-rendering="crispEdges"/><rect fill="#0a0d0f" x="48.8" y="635.9" width="48.8" height="24.65" shape-rendering="crispEdges"/><rect fill="#111518" x="97.6" y="635.9" width="12.2" height="24.65" shape-rendering="crispEdges"/><rect fill="#111518" x="109.8" y="635.9" width="1000.4" height="24.65" shape-rendering="crispEdges"/><rect fill="#111518" x="1110.2" y="635.9" width="12.2" height="24.65" shape-rendering="crispEdges"/><rect fill="#0a0d0f" x="1122.4" y="635.9" width="48.8" height="24.65" shape-rendering="crispEdges"/><rect fill="#0a0d0f" x="1171.2" y="635.9" width="48.8" height="24.65" shape-rendering="crispEdges"/><rect fill="#0a0d0f" x="0" y="660.3" width="48.8" height="24.65" shape-rendering="crispEdges"/><rect fill="#0a0d0f" x="48.8" y="660.3" width="48.8" height="24.65" shape-rendering="crispEdges"/><rect fill="#0a0d0f" x="97.6" y="660.3" width="1024.8" height="24.65" shape-rendering="crispEdges"/><rect fill="#0a0d0f" x="1122.4" y="660.3" width="48.8" height="24.65" shape-rendering="crispEdges"/><rect fill="#0a0d0f" x="1171.2" y="660.3" width="48.8" height="24.65" shape-rendering="crispEdges"/><rect fill="#0a0d0f" x="0" y="684.7" width="48.8" height="24.65" shape-rendering="crispEdges"/><rect fill="#0a0d0f" x="48.8" y="684.7" width="1122.4" height="24.65" shape-rendering="crispEdges"/><rect fill="#0a0d0f" x="1171.2" y="684.7" width="48.8" height="24.65" shape-rendering="crispEdges"/><rect fill="#0a0d0f" x="0" y="709.1" width="48.8" height="24.65" shape-rendering="crispEdges"/><rect fill="#0a0d0f" x="48.8" y="709.1" width="1122.4" height="24.65" shape-rendering="crispEdges"/><rect fill="#0a0d0f" x="1171.2" y="709.1" width="48.8" height="24.65" shape-rendering="crispEdges"/><rect fill="#0a0d0f" x="0" y="733.5" width="48.8" height="24.65" shape-rendering="crispEdges"/><rect fill="#1a1f24" x="48.8" y="733.5" width="61" height="24.65" shape-rendering="crispEdges"/><rect fill="#0d1117" x="109.8" y="733.5" width="61" height="24.65" shape-rendering="crispEdges"/><rect fill="#1a1f24" x="170.8" y="733.5" width="48.8" height="24.65" shape-rendering="crispEdges"/><rect fill="#0d1117" x="219.6" y="733.5" width="109.8" height="24.65" shape-rendering="crispEdges"/><rect fill="#1a1f24" x="329.4" y="733.5" width="48.8" height="24.65" shape-rendering="crispEdges"/><rect fill="#0d1117" x="378.2" y="733.5" width="109.8" height="24.65" shape-rendering="crispEdges"/><rect fill="#1a1f24" x="488" y="733.5" width="48.8" height="24.65" shape-rendering="crispEdges"/><rect fill="#0d1117" x="536.8" y="733.5" width="158.6" height="24.65" shape-rendering="crispEdges"/><rect fill="#1a1f24" x="695.4" y="733.5" width="36.6" height="24.65" shape-rendering="crispEdges"/><rect fill="#0d1117" x="732" y="733.5" width="97.6" height="24.65" shape-rendering="crispEdges"/><rect fill="#0d1117" x="829.6" y="733.5" width="134.2" height="24.65" shape-rendering="crispEdges"/><rect fill="#0d1117" x="963.8" y="733.5" width="12.2" height="24.65" shape-rendering="crispEdges"/><rect fill="#1a1f24" x="976" y="733.5" width="24.4" height="24.65" shape-rendering="crispEdges"/><rect fill="#0d1117" x="1000.4" y="733.5" width="158.6" height="24.65" shape-rendering="crispEdges"/><rect fill="#0d1117" x="1159" y="733.5" width="12.2" height="24.65" shape-rendering="crispEdges"/><rect fill="#0a0d0f" x="1171.2" y="733.5" width="48.8" height="24.65" shape-rendering="crispEdges"/><rect fill="#0a0d0f" x="0" y="757.9" width="1220" height="24.65" shape-rendering="crispEdges"/>
    <g class="terminal-2924205350-matrix">
    <text class="terminal-2924205350-r1" x="1220" y="20" textLength="12.2" clip-path="url(#terminal-2924205350-line-0)">
</text><text class="terminal-2924205350-r2" x="512.4" y="44.4" textLength="183" clip-path="url(#terminal-2924205350-line-1)">&#160;&#160;●&#160;DOME&#160;STATUS</text><text class="terminal-2924205350-r1" x="1220" y="44.4" textLength="12.2" clip-path="url(#terminal-2924205350-line-1)">
</text><text class="terminal-2924205350-r1" x="1220" y="68.8" textLength="12.2" clip-path="url(#terminal-2924205350-line-2)">
</text><text class="terminal-2924205350-r1" x="1220" y="93.2" textLength="12.2" clip-path="url(#terminal-2924205350-line-3)">
</text><text class="terminal-2924205350-r1" x="1220" y="117.6" textLength="12.2" clip-path="url(#terminal-2924205350-line-4)">
</text><text class="terminal-2924205350-r3" x="97.6" y="142" textLength="12.2" clip-path="url(#terminal-2924205350-line-5)">┌</text><text class="terminal-2924205350-r3" x="109.8" y="142" textLength="1000.4" clip-path="url(#terminal-2924205350-line-5)">──────────────────────────────────────────────────────────────────────────────────</text><text class="terminal-2924205350-r3" x="1110.2" y="142" textLength="12.2" clip-path="url(#terminal-2924205350-line-5)">┐</text><text class="terminal-2924205350-r1" x="1220" y="142" textLength="12.2" clip-path="url(#terminal-2924205350-line-5)">
</text><text class="terminal-2924205350-r3" x="97.6" y="166.4" textLength="12.2" clip-path="url(#terminal-2924205350-line-6)">│</text><text class="terminal-2924205350-r3" x="1110.2" y="166.4" textLength="12.2" clip-path="url(#terminal-2924205350-line-6)">│</text><text class="terminal-2924205350-r1" x="1220" y="166.4" textLength="12.2" clip-path="url(#terminal-2924205350-line-6)">
</text><text class="terminal-2924205350-r3" x="97.6" y="190.8" textLength="12.2" clip-path="url(#terminal-2924205350-line-7)">│</text><text class="terminal-2924205350-r2" x="134.2" y="190.8" textLength="61" clip-path="url(#terminal-2924205350-line-7)">VAULT</text><text class="terminal-2924205350-r3" x="1110.2" y="190.8" textLength="12.2" clip-path="url(#terminal-2924205350-line-7)">│</text><text class="terminal-2924205350-r1" x="1220" y="190.8" textLength="12.2" clip-path="url(#terminal-2924205350-line-7)">
</text><text class="terminal-2924205350-r3" x="97.6" y="215.2" textLength="12.2" clip-path="url(#terminal-2924205350-line-8)">│</text><text class="terminal-2924205350-r3" x="1110.2" y="215.2" textLength="12.2" clip-path="url(#terminal-2924205350-line-8)">│</text><text class="terminal-2924205350-r1" x="1220" y="215.2" textLength="12.2" clip-path="url(#terminal-2924205350-line-8)">
</text><text class="terminal-2924205350-r3" x="97.6" y="239.6" textLength="12.2" clip-path="url(#terminal-2924205350-line-9)">│</text><text class="terminal-2924205350-r3" x="1110.2" y="239.6" textLength="12.2" clip-path="url(#terminal-2924205350-line-9)">│</text><text class="terminal-2924205350-r1" x="1220" y="239.6" textLength="12.2" clip-path="url(#terminal-2924205350-line-9)">
</text><text class="terminal-2924205350-r3" x="97.6" y="264" textLength="12.2" clip-path="url(#terminal-2924205350-line-10)">└</text><text class="terminal-2924205350-r3" x="109.8" y="264" textLength="1000.4" clip-path="url(#terminal-2924205350-line-10)">──────────────────────────────────────────────────────────────────────────────────</text><text class="terminal-2924205350-r3" x="1110.2" y="264" textLength="12.2" clip-path="url(#terminal-2924205350-line-10)">┘</text><text class="terminal-2924205350-r1" x="1220" y="264" textLength="12.2" clip-path="url(#terminal-2924205350-line-10)">
</text><text class="terminal-2924205350-r1" x="1220" y="288.4" textLength="12.2" clip-path="url(#terminal-2924205350-line-11)">
</text><text class="terminal-2924205350-r3" x="97.6" y="312.8" textLength="12.2" clip-path="url(#terminal-2924205350-line-12)">┌</text><text class="terminal-2924205350-r3" x="109.8" y="312.8" textLength="1000.4" clip-path="url(#terminal-2924205350-line-12)">──────────────────────────────────────────────────────────────────────────────────</text><text class="terminal-2924205350-r3" x="1110.2" y="312.8" textLength="12.2" clip-path="url(#terminal-2924205350-line-12)">┐</text><text class="terminal-2924205350-r1" x="1220" y="312.8" textLength="12.2" clip-path="url(#terminal-2924205350-line-12)">
</text><text class="terminal-2924205350-r3" x="97.6" y="337.2" textLength="12.2" clip-path="url(#terminal-2924205350-line-13)">│</text><text class="terminal-2924205350-r3" x="1110.2" y="337.2" textLength="12.2" clip-path="url(#terminal-2924205350-line-13)">│</text><text class="terminal-2924205350-r1" x="1220" y="337.2" textLength="12.2" clip-path="url(#terminal-2924205350-line-13)">
</text><text class="terminal-2924205350-r3" x="97.6" y="361.6" textLength="12.2" clip-path="url(#terminal-2924205350-line-14)">│</text><text class="terminal-2924205350-r2" x="134.2" y="361.6" textLength="97.6" clip-path="url(#terminal-2924205350-line-14)">SECURITY</text><text class="terminal-2924205350-r3" x="1110.2" y="361.6" textLength="12.2" clip-path="url(#terminal-2924205350-line-14)">│</text><text class="terminal-2924205350-r1" x="1220" y="361.6" textLength="12.2" clip-path="url(#terminal-2924205350-line-14)">
</text><text class="terminal-2924205350-r3" x="97.6" y="386" textLength="12.2" clip-path="url(#terminal-2924205350-line-15)">│</text><text class="terminal-2924205350-r3" x="1110.2" y="386" textLength="12.2" clip-path="url(#terminal-2924205350-line-15)">│</text><text class="terminal-2924205350-r1" x="1220" y="386" textLength="12.2" clip-path="url(#terminal-2924205350-line-15)">
</text><text class="terminal-2924205350-r3" x="97.6" y="410.4" textLength="12.2" clip-path="url(#terminal-2924205350-line-16)">│</text><text class="terminal-2924205350-r4" x="134.2" y="410.4" textLength="122" clip-path="url(#terminal-2924205350-line-16)">Auth&#160;mode:</text><text class="terminal-2924205350-r5" x="427" y="410.4" textLength="158.6" clip-path="url(#terminal-2924205350-line-16)">password_only</text><text class="terminal-2924205350-r3" x="1110.2" y="410.4" textLength="12.2" clip-path="url(#terminal-2924205350-line-16)">│</text><text class="terminal-2924205350-r1" x="1220" y="410.4" textLength="12.2" clip-path="url(#terminal-2924205350-line-16)">
</text><text class="terminal-2924205350-r3" x="97.6" y="434.8" textLength="12.2" clip-path="url(#terminal-2924205350-line-17)">│</text><text class="terminal-2924205350-r3" x="1110.2" y="434.8" textLength="12.2" clip-path="url(#terminal-2924205350-line-17)">│</text><text class="terminal-2924205350-r1" x="1220" y="434.8" textLength="12.2" clip-path="url(#terminal-2924205350-line-17)">
</text><text class="terminal-2924205350-r3" x="97.6" y="459.2" textLength="12.2" clip-path="url(#terminal-2924205350-line-18)">└</text><text class="terminal-2924205350-r3" x="109.8" y="459.2" textLength="1000.4" clip-path="url(#terminal-2924205350-line-18)">──────────────────────────────────────────────────────────────────────────────────</text><text class="terminal-2924205350-r3" x="1110.2" y="459.2" textLength="12.2" clip-path="url(#terminal-2924205350-line-18)">┘</text><text class="terminal-2924205350-r1" x="1220" y="459.2" textLength="12.2" clip-path="url(#terminal-2924205350-line-18)">
</text><text class="terminal-2924205350-r1" x="1220" y="483.6" textLength="12.2" clip-path="url(#terminal-2924205350-line-19)">
</text><text class="terminal-2924205350-r3" x="97.6" y="508" textLength="12.2" clip-path="url(#terminal-2924205350-line-20)">┌</text><text class="terminal-2924205350-r3" x="109.8" y="508" textLength="1000.4" clip-path="url(#terminal-2924205350-line-20)">──────────────────────────────────────────────────────────────────────────────────</text><text class="terminal-2924205350-r3" x="1110.2" y="508" textLength="12.2" clip-path="url(#terminal-2924205350-line-20)">┐</text><text class="terminal-2924205350-r1" x="1220" y="508" textLength="12.2" clip-path="url(#terminal-2924205350-line-20)">
</text><text class="terminal-2924205350-r3" x="97.6" y="532.4" textLength="12.2" clip-path="url(#terminal-2924205350-line-21)">│</text><text class="terminal-2924205350-r3" x="1110.2" y="532.4" textLength="12.2" clip-path="url(#terminal-2924205350-line-21)">│</text><text class="terminal-2924205350-r1" x="1220" y="532.4" textLength="12.2" clip-path="url(#terminal-2924205350-line-21)">
</text><text class="terminal-2924205350-r3" x="97.6" y="556.8" textLength="12.2" clip-path="url(#terminal-2924205350-line-22)">│</text><text class="terminal-2924205350-r2" x="134.2" y="556.8" textLength="85.4" clip-path="url(#terminal-2924205350-line-22)">SESSION</text><text class="terminal-2924205350-r3" x="1110.2" y="556.8" textLength="12.2" clip-path="url(#terminal-2924205350-line-22)">│</text><text class="terminal-2924205350-r1" x="1220" y="556.8" textLength="12.2" clip-path="url(#terminal-2924205350-line-22)">
</text><text class="terminal-2924205350-r3" x="97.6" y="581.2" textLength="12.2" clip-path="url(#terminal-2924205350-line-23)">│</text><text class="terminal-2924205350-r3" x="1110.2" y="581.2" textLength="12.2" clip-path="url(#terminal-2924205350-line-23)">│</text><text class="terminal-2924205350-r1" x="1220" y="581.2" textLength="12.2" clip-path="url(#terminal-2924205350-line-23)">
</text><text class="terminal-2924205350-r3" x="97.6" y="605.6" textLength="12.2" clip-path="url(#terminal-2924205350-line-24)">│</text><text class="terminal-2924205350-r4" x="134.2" y="605.6" textLength="109.8" clip-path="url(#terminal-2924205350-line-24)">Operator:</text><text class="terminal-2924205350-r5" x="427" y="605.6" textLength="97.6" clip-path="url(#terminal-2924205350-line-24)">operator</text><text class="terminal-2924205350-r3" x="1110.2" y="605.6" textLength="12.2" clip-path="url(#terminal-2924205350-line-24)">│</text><text class="terminal-2924205350-r1" x="1220" y="605.6" textLength="12.2" clip-path="url(#terminal-2924205350-line-24)">
</text><text class="terminal-2924205350-r3" x="97.6" y="630" textLength="12.2" clip-path="url(#terminal-2924205350-line-25)">│</text><text class="terminal-2924205350-r3" x="1110.2" y="630" textLength="12.2" clip-path="url(#terminal-2924205350-line-25)">│</text><text class="terminal-2924205350-r1" x="1220" y="630" textLength="12.2" clip-path="url(#terminal-2924205350-line-25)">
</text><text class="terminal-2924205350-r3" x="97.6" y="654.4" textLength="12.2" clip-path="url(#terminal-2924205350-line-26)">└</text><text class="terminal-2924205350-r3" x="109.8" y="654.4" textLength="1000.4" clip-path="url(#terminal-2924205350-line-26)">──────────────────────────────────────────────────────────────────────────────────</text><text class="terminal-2924205350-r3" x="1110.2" y="654.4" textLength="12.2" clip-path="url(#terminal-2924205350-line-26)">┘</text><text class="terminal-2924205350-r1" x="1220" y="654.4" textLength="12.2" clip-path="url(#terminal-2924205350-line-26)">
</text><text class="terminal-2924205350-r1" x="1220" y="678.8" textLength="12.2" clip-path="url(#terminal-2924205350-line-27)">
</text><text class="terminal-2924205350-r1" x="1220" y="703.2" textLength="12.2" clip-path="url(#terminal-2924205350-line-28)">
</text><text class="terminal-2924205350-r1" x="1220" y="727.6" textLength="12.2" clip-path="url(#terminal-2924205350-line-29)">
</text><text class="terminal-2924205350-r2" x="48.8" y="752" textLength="61" clip-path="url(#terminal-2924205350-line-30)">&#160;esc&#160;</text><text class="terminal-2924205350-r6" x="109.8" y="752" textLength="61" clip-path="url(#terminal-2924205350-line-30)">Back&#160;</text><text class="terminal-2924205350-r2" x="170.8" y="752" textLength="48.8" clip-path="url(#terminal-2924205350-line-30)">&#160;^q&#160;</text><text class="terminal-2924205350-r6" x="219.6" y="752" textLength="109.8" clip-path="url(#terminal-2924205350-line-30)">^Q:&#160;Quit&#160;</text><text class="terminal-2924205350-r2" x="329.4" y="752" textLength="48.8" clip-path="url(#terminal-2924205350-line-30)">&#160;^l&#160;</text><text class="terminal-2924205350-r6" x="378.2" y="752" textLength="109.8" clip-path="url(#terminal-2924205350-line-30)">^L:&#160;Lock&#160;</text><text class="terminal-2924205350-r2" x="488" y="752" textLength="48.8" clip-path="url(#terminal-2924205350-line-30)">&#160;^p&#160;</text><text class="terminal-2924205350-r6" x="536.8" y="752" textLength="158.6" clip-path="url(#terminal-2924205350-line-30)">^P:&#160;Commands&#160;</text><text class="terminal-2924205350-r2" x="695.4" y="752" textLength="36.6" clip-path="url(#terminal-2924205350-line-30)">&#160;?&#160;</text><text class="terminal-2924205350-r6" x="732" y="752" textLength="97.6" clip-path="url(#terminal-2924205350-line-30)">?:&#160;Help&#160;</text><text class="terminal-2924205350-r7" x="963.8" y="752" textLength="12.2" clip-path="url(#terminal-2924205350-line-30)">▏</text><text class="terminal-2924205350-r2" x="976" y="752" textLength="24.4" clip-path="url(#terminal-2924205350-line-30)">^p</text><text class="terminal-2924205350-r6" x="1000.4" y="752" textLength="158.6" clip-path="url(#terminal-2924205350-line-30)">&#160;^P:&#160;Commands</text><text class="terminal-2924205350-r1" x="1220" y="752" textLength="12.2" clip-path="url(#terminal-2924205350-line-30)">
</text>
    </g>
    </g>
</svg>
