<svg class="rich-terminal" viewBox="0 0 1238 830.8" xmlns="http://www.w3.org/2000/svg">
    
    <style>

    
    

    .terminal-1673609737-matrix {
        font-family: Fira Code, monospace;
        font-size: 20px;
        line-height: 24.4px;
        font-variant-east-asian: full-width;
    }

    .terminal-1673609737-title {
        font-size: 18px;
        font-weight: bold;
        font-family: arial;
    }

    .terminal-1673609737-r1 { fill: #c5c8c6 }
.terminal-1673609737-r2 { fill: #00ff41 }
.terminal-1673609737-r3 { fill: #00ff41;font-weight: bold }
.terminal-1673609737-r4 { fill: #111518 }
.terminal-1673609737-r5 { fill: #e2e8f0 }
.terminal-1673609737-r6 { fill: #94a3b8;font-weight: bold }
.terminal-1673609737-r7 { fill: #00b4d8 }
.terminal-1673609737-r8 { fill: #000000 }
    </style>

    <defs>
    <clipPath id="terminal-1673609737-clip-terminal">
      <rect x="0" y="0" width="1219.0" height="779.8" />
    </clipPath>
    <clipPath id="terminal-1673609737-line-0">
    <rect x="0" y="1.5" width="1220" height="24.65"/>
            </clipPath>
<clipPath id="terminal-1673609737-line-1">
    <rect x="0" y="25.9" width="1220" height="24.65"/>
            </clipPath>
<clipPath id="terminal-1673609737-line-2">
    <rect x="0" y="50.3" width="1220" height="24.65"/>
            </clipPath>
<clipPath id="terminal-1673609737-line-3">
    <rect x="0" y="74.7" width="1220" height="24.65"/>
            </clipPath>
<clipPath id="terminal-1673609737-line-4">
    <rect x="0" y="99.1" width="1220" height="24.65"/>
            </clipPath>
<clipPath id="terminal-1673609737-line-5">
    <rect x="0" y="123.5" width="1220" height="24.65"/>
            </clipPath>
<clipPath id="terminal-1673609737-line-6">
    <rect x="0" y="147.9" width="1220" height="24.65"/>
            </clipPath>
<clipPath id="terminal-1673609737-line-7">
    <rect x="0" y="172.3" width="1220" height="24.65"/>
            </clipPath>
<clipPath id="terminal-1673609737-line-8">
    <rect x="0" y="196.7" width="1220" height="24.65"/>
            </clipPath>
<clipPath id="terminal-1673609737-line-9">
    <rect x="0" y="221.1" width="1220" height="24.65"/>
            </clipPath>
<clipPath id="terminal-1673609737-line-10">
    <rect x="0" y="245.5" width="1220" height="24.65"/>
            </clipPath>
<clipPath id="terminal-1673609737-line-11">
    <rect x="0" y="269.9" width="1220" height="24.65"/>
            </clipPath>
<clipPath id="terminal-1673609737-line-12">
    <rect x="0" y="294.3" width="1220" height="24.65"/>
            </clipPath>
<clipPath id="terminal-1673609737-line-13">
    <rect x="0" y="318.7" width="1220" height="24.65"/>
            </clipPath>
<clipPath id="terminal-1673609737-line-14">
    <rect x="0" y="343.1" width="1220" height="24.65"/>
            </clipPath>
<clipPath id="terminal-1673609737-line-15">
    <rect x="0" y="367.5" width="1220" height="24.65"/>
            </clipPath>
<clipPath id="terminal-1673609737-line-16">
    <rect x="0" y="391.9" width="1220" height="24.65"/>
            </clipPath>
<clipPath id="terminal-1673609737-line-17">
    <rect x="0" y="416.3" width="1220" height="24.65"/>
            </clipPath>
<clipPath id="terminal-1673609737-line-18">
    <rect x="0" y="440.7" width="1220" height="24.65"/>
            </clipPath>
<clipPath id="terminal-1673609737-line-19">
    <rect x="0" y="465.1" width="1220" height="24.65"/>
            </clipPath>
<clipPath id="terminal-1673609737-line-20">
    <rect x="0" y="489.5" width="1220" height="24.65"/>
            </clipPath>
<clipPath id="terminal-1673609737-line-21">
    <rect x="0" y="513.9" width="1220" height="24.65"/>
            </clipPath>
<clipPath id="terminal-1673609737-line-22">
    <rect x="0" y="538.3" width="1220" height="24.65"/>
            </clipPath>
<clipPath id="terminal-1673609737-line-23">
    <rect x="0" y="562.7" width="1220" height="24.65"/>
            </clipPath>
<clipPath id="terminal-1673609737-line-24">
    <rect x="0" y="587.1" width="1220" height="24.65"/>
            </clipPath>
<clipPath id="terminal-1673609737-line-25">
    <rect x="0" y="611.5" width="1220" height="24.65"/>
            </clipPath>
<clipPath id="terminal-1673609737-line-26">
    <rect x="0" y="635.9" width="1220" height="24.65"/>
            </clipPath>
<clipPath id="terminal-1673609737-line-27">
    <rect x="0" y="660.3" width="1220" height="24.65"/>
            </clipPath>
<clipPath id="terminal-1673609737-line-28">
    <rect x="0" y="684.7" width="1220" height="24.65"/>
            </clipPath>
<clipPath id="terminal-1673609737-line-29">
    <rect x="0" y="709.1" width="1220" height="24.65"/>
            </clipPath>
<clipPath id="terminal-1673609737-line-30">
    <rect x="0" y="733.5" width="1220" height="24.65"/>
            </clipPath>
    </defs>

    <rect fill="#292929" stroke="rgba(255,255,255,0.35)" stroke-width="1" x="1" y="1" width="1236" height="828.8" rx="8"/><text class="terminal-1673609737-title" fill="#c5c8c6" text-anchor="middle" x="618" y="27">IronDome</text>
            <g transform="translate(26,22)">
            <circle cx="0" cy="0" r="7" fill="#ff5f57"/>
            <circle cx="22" cy="0" r="7" fill="#febc2e"/>
            <circle cx="44" cy="0" r="7" fill="#28c840"/>
            </g>
        
    <g transform="translate(9, 41)" clip-path="url(#terminal-1673609737-clip-terminal)">
    <rect fill="#0a0d0f" x="0" y="1.5" width="1220" height="24.65" shape-rendering="crispEdges"/><rect fill="#0a0d0f" x="0" y="25.9" width="48.8" height="24.65" shape-rendering="crispEdges"/><rect fill="#0a0d0f" x="48.8" y="25.9" width="195.2" height="24.65" shape-rendering="crispEdges"/><rect fill="#111518" x="244" y="25.9" width="12.2" height="24.65" shape-rendering="crispEdges"/><rect fill="#111518" x="256.2" y="25.9" width="707.6" height="24.65" shape-rendering="crispEdges"/><rect fill="#111518" x="963.8" y="25.9" width="12.2" height="24.65" shape-rendering="crispEdges"/><rect fill="#0a0d0f" x="976" y="25.9" width="195.2" height="24.65" shape-rendering="crispEdges"/><rect fill="#0a0d0f" x="1171.2" y="25.9" width="48.8" height="24.65" shape-rendering="crispEdges"/><rect fill="#0a0d0f" x="0" y="50.3" width="48.8" height="24.65" shape-rendering="crispEdges"/><rect fill="#0a0d0f" x="48.8" y="50.3" width="195.2" height="24.65" shape-rendering="crispEdges"/><rect fill="#111518" x="244" y="50.3" width="12.2" height="24.65" shape-rendering="crispEdges"/><rect fill="#111518" x="256.2" y="50.3" width="707.6" height="24.65" shape-rendering="crispEdges"/><rect fill="#111518" x="963.8" y="50.3" width="12.2" height="24.65" shape-rendering="crispEdges"/><rect fill="#0a0d0f" x="976" y="50.3" width="195.2" height="24.65" shape-rendering="crispEdges"/><rect fill="#0a0d0f" x="1171.2" y="50.3" width="48.8" height="24.65" shape-rendering="crispEdges"/><rect fill="#0a0d0f" x="0" y="74.7" width="48.8" height="24.65" shape-rendering="crispEdges"/><rect fill="#0a0d0f" x="48.8" y="74.7" width="195.2" height="24.65" shape-rendering="crispEdges"/><rect fill="#111518" x="244" y="74.7" width="12.2" height="24.65" shape-rendering="crispEdges"/><rect fill="#111518" x="256.2" y="74.7" width="707.6" height="24.65" shape-rendering="crispEdges"/><rect fill="#111518" x="963.8" y="74.7" width="12.2" height="24.65" shape-rendering="crispEdges"/><rect fill="#0a0d0f" x="976" y="74.7" width="195.2" height="24.65" shape-rendering="crispEdges"/><rect fill="#0a0d0f" x="1171.2" y="74.7" width="48.8" height="24.65" shape-rendering="crispEdges"/><rect fill="#0a0d0f" x="0" y="99.1" width="48.8" height="24.65" shape-rendering="crispEdges"/><rect fill="#0a0d0f" x="48.8" y="99.1" width="195.2" height="24.65" shape-rendering="crispEdges"/><rect fill="#111518" x="244" y="99.1" width="12.2" height="24.65" shape-rendering="crispEdges"/><rect fill="#111518" x="256.2" y="99.1" width="48.8" height="24.65" shape-rendering="crispEdges"/><rect fill="#111518" x="305" y="99.1" width="329.4" height="24.65" shape-rendering="crispEdges"/><rect fill="#111518" x="634.4" y="99.1" width="256.2" height="24.65" shape-rendering="crispEdges"/><rect fill="#003054" x="890.6" y="99.1" width="24.4" height="24.65" shape-rendering="crispEdges"/><rect fill="#111518" x="915" y="99.1" width="48.8" height="24.65" shape-rendering="crispEdges"/><rect fill="#111518" x="963.8" y="99.1" width="12.2" height="24.65" shape-rendering="crispEdges"/><rect fill="#0a0d0f" x="976" y="99.1" width="195.2" height="24.65" shape-rendering="crispEdges"/><rect fill="#0a0d0f" x="1171.2" y="99.1" width="48.8" height="24.65" shape-rendering="crispEdges"/><rect fill="#0a0d0f" x="0" y="123.5" width="48.8" height="24.65" shape-rendering="crispEdges"/><rect fill="#0a0d0f" x="48.8" y="123.5" width="195.2" height="24.65" shape-rendering="crispEdges"/><rect fill="#111518" x="244" y="123.5" width="12.2" height="24.65" shape-rendering="crispEdges"/><rect fill="#111518" x="256.2" y="123.5" width="48.8" height="24.65" shape-rendering="crispEdges"/><rect fill="#111518" x="305" y="123.5" width="0" height="24.65" shape-rendering="crispEdges"/><rect fill="#111518" x="305" y="123.5" width="585.6" height="24.65" shape-rendering="crispEdges"/><rect fill="#003054" x="890.6" y="123.5" width="24.4" height="24.65" shape-rendering="crispEdges"/><rect fill="#111518" x="915" y="123.5" width="48.8" height="24.65" shape-rendering="crispEdges"/><rect fill="#111518" x="963.8" y="123.5" width="12.2" height="24.65" shape-rendering="crispEdges"/><rect fill="#0a0d0f" x="976" y="123.5" width="195.2" height="24.65" shape-rendering="crispEdges"/><rect fill="#0a0d0f" x="1171.2" y="123.5" width="48.8" height="24.65" shape-rendering="crispEdges"/><rect fill="#0a0d0f" x="0" y="147.9" width="48.8" height="24.65" shape-rendering="crispEdges"/><rect fill="#0a0d0f" x="48.8" y="147.9" width="195.2" height="24.65" shape-rendering="crispEdges"/><rect fill="#111518" x="244" y="147.9" width="12.2" height="24.65" shape-rendering="crispEdges"/><rect fill="#111518" x="256.2" y="147.9" width="48.8" height="24.65" shape-rendering="crispEdges"/><rect fill="#111518" x="305" y="147.9" width="122" height="24.65" shape-rendering="crispEdges"/><rect fill="#111518" x="427" y="147.9" width="463.6" height="24.65" shape-rendering="crispEdges"/><rect fill="#003054" x="890.6" y="147.9" width="24.4" height="24.65" shape-rendering="crispEdges"/><rect fill="#111518" x="915" y="147.9" width="48.8" height="24.65" shape-rendering="crispEdges"/><rect fill="#111518" x="963.8" y="147.9" width="12.2" height="24.65" shape-rendering="crispEdges"/><rect fill="#0a0d0f" x="976" y="147.9" width="195.2" height="24.65" shape-rendering="crispEdges"/><rect fill="#0a0d0f" x="1171.2" y="147.9" width="48.8" height="24.65" shape-rendering="crispEdges"/><rect fill="#0a0d0f" x="0" y="172.3" width="48.8" height="24.65" shape-rendering="crispEdges"/><rect fill="#0a0d0f" x="48.8" y="172.3" width="195.2" height="24.65" shape-rendering="crispEdges"/><rect fill="#111518" x="244" y="172.3" width="12.2" height="24.65" shape-rendering="crispEdges"/><rect fill="#111518" x="256.2" y="172.3" width="48.8" height="24.65" shape-rendering="crispEdges"/><rect fill="#111518" x="305" y="172.3" width="24.4" height="24.65" shape-rendering="crispEdges"/><rect fill="#111518" x="329.4" y="172.3" width="109.8" height="24.65" shape-rendering="crispEdges"/><rect fill="#111518" x="439.2" y="172.3" width="317.2" height="24.65" shape-rendering="crispEdges"/><rect fill="#111518" x="756.4" y="172.3" width="134.2" height="24.65" shape-rendering="crispEdges"/><rect fill="#003054" x="890.6" y="172.3" width="24.4" height="24.65" shape-rendering="crispEdges"/><rect fill="#111518" x="915" y="172.3" width="48.8" height="24.65" shape-rendering="crispEdges"/><rect fill="#111518" x="963.8" y="172.3" width="12.2" height="24.65" shape-rendering="crispEdges"/><rect fill="#0a0d0f" x="976" y="172.3" width="195.2" height="24.65" shape-rendering="crispEdges"/><rect fill="#0a0d0f" x="1171.2" y="172.3" width="48.8" height="24.65" shape-rendering="crispEdges"/><rect fill="#0a0d0f" x="0" y="196.7" width="48.8" height="24.65" shape-rendering="crispEdges"/><rect fill="#0a0d0f" x="48.8" y="196.7" width="195.2" height="24.65" shape-rendering="crispEdges"/><rect fill="#111518" x="244" y="196.7" width="12.2" height="24.65" shape-rendering="crispEdges"/><rect fill="#111518" x="256.2" y="196.7" width="48.8" height="24.65" shape-rendering="crispEdges"/><rect fill="#111518" x="305" y="196.7" width="24.4" height="24.65" shape-rendering="crispEdges"/><rect fill="#111518" x="329.4" y="196.7" width="48.8" height="24.65" shape-rendering="crispEdges"/><rect fill="#111518" x="378.2" y="196.7" width="244" height="24.65" shape-rendering="crispEdges"/><rect fill="#111518" x="622.2" y="196.7" width="268.4" height="24.65" shape-rendering="crispEdges"/><rect fill="#003054" x="890.6" y="196.7" width="24.4" height="24.65" shape-rendering="crispEdges"/><rect fill="#111518" x="915" y="196.7" width="48.8" height="24.65" shape-rendering="crispEdges"/><rect fill="#111518" x="963.8" y="196.7" width="12.2" height="24.65" shape-rendering="crispEdges"/><rect fill="#0a0d0f" x="976" y="196.7" width="195.2" height="24.65" shape-rendering="crispEdges"/><rect fill="#0a0d0f" x="1171.2" y="196.7" width="48.8" height="24.65" shape-rendering="crispEdges"/><rect fill="#0a0d0f" x="0" y="221.1" width="48.8" height="24.65" shape-rendering="crispEdges"/><rect fill="#0a0d0f" x="48.8" y="221.1" width="195.2" height="24.65" shape-rendering="crispEdges"/><rect fill="#111518" x="244" y="221.1" width="12.2" height="24.65" shape-rendering="crispEdges"/><rect fill="#111518" x="256.2" y="221.1" width="48.8" height="24.65" shape-rendering="crispEdges"/><rect fill="#111518" x="305" y="221.1" width="24.4" height="24.65" shape-rendering="crispEdges"/><rect fill="#111518" x="329.4" y="221.1" width="61" height="24.65" shape-rendering="crispEdges"/><rect fill="#111518" x="390.4" y="221.1" width="292.8" height="24.65" shape-rendering="crispEdges"/><rect fill="#111518" x="683.2" y="221.1" width="207.4" height="24.65" shape-rendering="crispEdges"/><rect fill="#003054" x="890.6" y="221.1" width="24.4" height="24.65" shape-rendering="crispEdges"/><rect fill="#111518" x="915" y="221.1" width="48.8" height="24.65" shape-rendering="crispEdges"/><rect fill="#111518" x="963.8" y="221.1" width="12.2" height="24.65" shape-rendering="crispEdges"/><rect fill="#0a0d0f" x="976" y="221.1" width="195.2" height="24.65" shape-rendering="crispEdges"/><rect fill="#0a0d0f" x="1171.2" y="221.1" width="48.8" height="24.65" shape-rendering="crispEdges"/><rect fill="#0a0d0f" x="0" y="245.5" width="48.8" height="24.65" shape-rendering="crispEdges"/><rect fill="#0a0d0f" x="48.8" y="245.5" width="195.2" height="24.65" shape-rendering="crispEdges"/><rect fill="#111518" x="244" y="245.5" width="12.2" height="24.65" shape-rendering="crispEdges"/><rect fill="#111518" x="256.2" y="245.5" width="48.8" height="24.65" shape-rendering="crispEdges"/><rect fill="#111518" x="305" y="245.5" width="24.4" height="24.65" shape-rendering="crispEdges"/><rect fill="#111518" x="329.4" y="245.5" width="183" height="24.65" shape-rendering="crispEdges"/><rect fill="#111518" x="512.4" y="245.5" width="280.6" height="24.65" shape-rendering="crispEdges"/><rect fill="#111518" x="793" y="245.5" width="97.6" height="24.65" shape-rendering="crispEdges"/><rect fill="#003054" x="890.6" y="245.5" width="24.4" height="24.65" shape-rendering="crispEdges"/><rect fill="#111518" x="915" y="245.5" width="48.8" height="24.65" shape-rendering="crispEdges"/><rect fill="#111518" x="963.8" y="245.5" width="12.2" height="24.65" shape-rendering="crispEdges"/><rect fill="#0a0d0f" x="976" y="245.5" width="195.2" height="24.65" shape-rendering="crispEdges"/><rect fill="#0a0d0f" x="1171.2" y="245.5" width="48.8" height="24.65" shape-rendering="crispEdges"/><rect fill="#0a0d0f" x="0" y="269.9" width="48.8" height="24.65" shape-rendering="crispEdges"/><rect fill="#0a0d0f" x="48.8" y="269.9" width="195.2" height="24.65" shape-rendering="crispEdges"/><rect fill="#111518" x="244" y="269.9" width="12.2" height="24.65" shape-rendering="crispEdges"/><rect fill="#111518" x="256.2" y="269.9" width="48.8" height="24.65" shape-rendering="crispEdges"/><rect fill="#111518" x="305" y="269.9" width="24.4" height="24.65" shape-rendering="crispEdges"/><rect fill="#111518" x="329.4" y="269.9" width="61" height="24.65" shape-rendering="crispEdges"/><rect fill="#111518" x="390.4" y="269.9" width="427" height="24.65" shape-rendering="crispEdges"/><rect fill="#111518" x="817.4" y="269.9" width="73.2" height="24.65" shape-rendering="crispEdges"/><rect fill="#000000" x="890.6" y="269.9" width="24.4" height="24.65" shape-rendering="crispEdges"/><rect fill="#111518" x="915" y="269.9" width="48.8" height="24.65" shape-rendering="crispEdges"/><rect fill="#111518" x="963.8" y="269.9" width="12.2" height="24.65" shape-rendering="crispEdges"/><rect fill="#0a0d0f" x="976" y="269.9" width="195.2" height="24.65" shape-rendering="crispEdges"/><rect fill="#0a0d0f" x="1171.2" y="269.9" width="48.8" height="24.65" shape-rendering="crispEdges"/><rect fill="#0a0d0f" x="0" y="294.3" width="48.8" height="24.65" shape-rendering="crispEdges"/><rect fill="#0a0d0f" x="48.8" y="294.3" width="195.2" height="24.65" shape-rendering="crispEdges"/><rect fill="#111518" x="244" y="294.3" width="12.2" height="24.65" shape-rendering="crispEdges"/><rect fill="#111518" x="256.2" y="294.3" width="48.8" height="24.65" shape-rendering="crispEdges"/><rect fill="#111518" x="305" y="294.3" width="24.4" height="24.65" shape-rendering="crispEdges"/><rect fill="#111518" x="329.4" y="294.3" width="36.6" height="24.65" shape-rendering="crispEdges"/><rect fill="#111518" x="366" y="294.3" width="329.4" height="24.65" shape-rendering="crispEdges"/><rect fill="#111518" x="695.4" y="294.3" width="195.2" height="24.65" shape-rendering="crispEdges"/><rect fill="#000000" x="890.6" y="294.3" width="24.4" height="24.65" shape-rendering="crispEdges"/><rect fill="#111518" x="915" y="294.3" width="48.8" height="24.65" shape-rendering="crispEdges"/><rect fill="#111518" x="963.8" y="294.3" width="12.2" height="24.65" shape-rendering="crispEdges"/><rect fill="#0a0d0f" x="976" y="294.3" width="195.2" height="24.65" shape-rendering="crispEdges"/><rect fill="#0a0d0f" x="1171.2" y="294.3" width="48.8" height="24.65" shape-rendering="crispEdges"/><rect fill="#0a0d0f" x="0" y="318.7" width="48.8" height="24.65" shape-rendering="crispEdges"/><rect fill="#0a0d0f" x="48.8" y="318.7" width="195.2" height="24.65" shape-rendering="crispEdges"/><rect fill="#111518" x="244" y="318.7" width="12.2" height="24.65" shape-rendering="crispEdges"/><rect fill="#111518" x="256.2" y="318.7" width="48.8" height="24.65" shape-rendering="crispEdges"/><rect fill="#111518" x="305" y="318.7" width="24.4" height="24.65" shape-rendering="crispEdges"/><rect fill="#111518" x="329.4" y="318.7" width="61" height="24.65" shape-rendering="crispEdges"/><rect fill="#111518" x="390.4" y="318.7" width="439.2" height="24.65" shape-rendering="crispEdges"/><rect fill="#111518" x="829.6" y="318.7" width="61" height="24.65" shape-rendering="crispEdges"/><rect fill="#000000" x="890.6" y="318.7" width="24.4" height="24.65" shape-rendering="crispEdges"/><rect fill="#111518" x="915" y="318.7" width="48.8" height="24.65" shape-rendering="crispEdges"/><rect fill="#111518" x="963.8" y="318.7" width="12.2" height="24.65" shape-rendering="crispEdges"/><rect fill="#0a0d0f" x="976" y="318.7" width="195.2" height="24.65" shape-rendering="crispEdges"/><rect fill="#0a0d0f" x="1171.2" y="318.7" width="48.8" height="24.65" shape-rendering="crispEdges"/><rect fill="#0a0d0f" x="0" y="343.1" width="48.8" height="24.65" shape-rendering="crispEdges"/><rect fill="#0a0d0f" x="48.8" y="343.1" width="195.2" height="24.65" shape-rendering="crispEdges"/><rect fill="#111518" x="244" y="343.1" width="12.2" height="24.65" shape-rendering="crispEdges"/><rect fill="#111518" x="256.2" y="343.1" width="48.8" height="24.65" shape-rendering="crispEdges"/><rect fill="#111518" x="305" y="343.1" width="85.4" height="24.65" shape-rendering="crispEdges"/><rect fill="#111518" x="390.4" y="343.1" width="500.2" height="24.65" shape-rendering="crispEdges"/><rect fill="#000000" x="890.6" y="343.1" width="24.4" height="24.65" shape-rendering="crispEdges"/><rect fill="#111518" x="915" y="343.1" width="48.8" height="24.65" shape-rendering="crispEdges"/><rect fill="#111518" x="963.8" y="343.1" width="12.2" height="24.65" shape-rendering="crispEdges"/><rect fill="#0a0d0f" x="976" y="343.1" width="195.2" height="24.65" shape-rendering="crispEdges"/><rect fill="#0a0d0f" x="1171.2" y="343.1" width="48.8" height="24.65" shape-rendering="crispEdges"/><rect fill="#0a0d0f" x="0" y="367.5" width="48.8" height="24.65" shape-rendering="crispEdges"/><rect fill="#0a0d0f" x="48.8" y="367.5" width="195.2" height="24.65" shape-rendering="crispEdges"/><rect fill="#111518" x="244" y="367.5" width="12.2" height="24.65" shape-rendering="crispEdges"/><rect fill="#111518" x="256.2" y="367.5" width="48.8" height="24.65" shape-rendering="crispEdges"/><rect fill="#111518" x="305" y="367.5" width="0" height="24.65" shape-rendering="crispEdges"/><rect fill="#111518" x="305" y="367.5" width="585.6" height="24.65" shape-rendering="crispEdges"/><rect fill="#000000" x="890.6" y="367.5" width="24.4" height="24.65" shape-rendering="crispEdges"/><rect fill="#111518" x="915" y="367.5" width="48.8" height="24.65" shape-rendering="crispEdges"/><rect fill="#111518" x="963.8" y="367.5" width="12.2" height="24.65" shape-rendering="crispEdges"/><rect fill="#0a0d0f" x="976" y="367.5" width="195.2" height="24.65" shape-rendering="crispEdges"/><rect fill="#0a0d0f" x="1171.2" y="367.5" width="48.8" height="24.65" shape-rendering="crispEdges"/><rect fill="#0a0d0f" x="0" y="391.9" width="48.8" height="24.65" shape-rendering="crispEdges"/><rect fill="#0a0d0f" x="48.8" y="391.9" width="195.2" height="24.65" shape-rendering="crispEdges"/><rect fill="#111518" x="244" y="391.9" width="12.2" height="24.65" shape-rendering="crispEdges"/><rect fill="#111518" x="256.2" y="391.9" width="48.8" height="24.65" shape-rendering="crispEdges"/><rect fill="#111518" x="305" y="391.9" width="109.8" height="24.65" shape-rendering="crispEdges"/><rect fill="#111518" x="414.8" y="391.9" width="475.8" height="24.65" shape-rendering="crispEdges"/><rect fill="#000000" x="890.6" y="391.9" width="24.4" height="24.65" shape-rendering="crispEdges"/><rect fill="#111518" x="915" y="391.9" width="48.8" height="24.65" shape-rendering="crispEdges"/><rect fill="#111518" x="963.8" y="391.9" width="12.2" height="24.65" shape-rendering="crispEdges"/><rect fill="#0a0d0f" x="976" y="391.9" width="195.2" height="24.65" shape-rendering="crispEdges"/><rect fill="#0a0d0f" x="1171.2" y="391.9" width="48.8" height="24.65" shape-rendering="crispEdges"/><rect fill="#0a0d0f" x="0" y="416.3" width="48.8" height="24.65" shape-rendering="crispEdges"/><rect fill="#0a0d0f" x="48.8" y="416.3" width="195.2" height="24.65" shape-rendering="crispEdges"/><rect fill="#111518" x="244" y="416.3" width="12.2" height="24.65" shape-rendering="crispEdges"/><rect fill="#111518" x="256.2" y="416.3" width="48.8" height="24.65" shape-rendering="crispEdges"/><rect fill="#111518" x="305" y="416.3" width="24.4" height="24.65" shape-rendering="crispEdges"/><rect fill="#111518" x="329.4" y="416.3" width="12.2" height="24.65" shape-rendering="crispEdges"/><rect fill="#111518" x="341.6" y="416.3" width="414.8" height="24.65" shape-rendering="crispEdges"/><rect fill="#111518" x="756.4" y="416.3" width="134.2" height="24.65" shape-rendering="crispEdges"/><rect fill="#000000" x="890.6" y="416.3" width="24.4" height="24.65" shape-rendering="crispEdges"/><rect fill="#111518" x="915" y="416.3" width="48.8" height="24.65" shape-rendering="crispEdges"/><rect fill="#111518" x="963.8" y="416.3" width="12.2" height="24.65" shape-rendering="crispEdges"/><rect fill="#0a0d0f" x="976" y="416.3" width="195.2" height="24.65" shape-rendering="crispEdges"/><rect fill="#0a0d0f" x="1171.2" y="416.3" width="48.8" height="24.65" shape-rendering="crispEdges"/><rect fill="#0a0d0f" x="0" y="440.7" width="48.8" height="24.65" shape-rendering="crispEdges"/><rect fill="#0a0d0f" x="48.8" y="440.7" width="195.2" height="24.65" shape-rendering="crispEdges"/><rect fill="#111518" x="244" y="440.7" width="12.2" height="24.65" shape-rendering="crispEdges"/><rect fill="#111518" x="256.2" y="440.7" width="48.8" height="24.65" shape-rendering="crispEdges"/><rect fill="#111518" x="305" y="440.7" width="24.4" height="24.65" shape-rendering="crispEdges"/><rect fill="#111518" x="329.4" y="440.7" width="12.2" height="24.65" shape-rendering="crispEdges"/><rect fill="#111518" x="341.6" y="440.7" width="244" height="24.65" shape-rendering="crispEdges"/><rect fill="#111518" x="585.6" y="440.7" width="305" height="24.65" shape-rendering="crispEdges"/><rect fill="#000000" x="890.6" y="440.7" width="24.4" height="24.65" shape-rendering="crispEdges"/><rect fill="#111518" x="915" y="440.7" width="48.8" height="24.65" shape-rendering="crispEdges"/><rect fill="#111518" x="963.8" y="440.7" width="12.2" height="24.65" shape-rendering="crispEdges"/><rect fill="#0a0d0f" x="976" y="440.7" width="195.2" height="24.65" shape-rendering="crispEdges"/><rect fill="#0a0d0f" x="1171.2" y="440.7" width="48.8" height="24.65" shape-rendering="crispEdges"/><rect fill="#0a0d0f" x="0" y="465.1" width="48.8" height="24.65" shape-rendering="crispEdges"/><rect fill="#0a0d0f" x="48.8" y="465.1" width="195.2" height="24.65" shape-rendering="crispEdges"/><rect fill="#111518" x="244" y="465.1" width="12.2" height="24.65" shape-rendering="crispEdges"/><rect fill="#111518" x="256.2" y="465.1" width="48.8" height="24.65" shape-rendering="crispEdges"/><rect fill="#111518" x="305" y="465.1" width="24.4" height="24.65" shape-rendering="crispEdges"/><rect fill="#111518" x="329.4" y="465.1" width="12.2" height="24.65" shape-rendering="crispEdges"/><rect fill="#111518" x="341.6" y="465.1" width="244" height="24.65" shape-rendering="crispEdges"/><rect fill="#111518" x="585.6" y="465.1" width="305" height="24.65" shape-rendering="crispEdges"/><rect fill="#000000" x="890.6" y="465.1" width="24.4" height="24.65" shape-rendering="crispEdges"/><rect fill="#111518" x="915" y="465.1" width="48.8" height="24.65" shape-rendering="crispEdges"/><rect fill="#111518" x="963.8" y="465.1" width="12.2" height="24.65" shape-rendering="crispEdges"/><rect fill="#0a0d0f" x="976" y="465.1" width="195.2" height="24.65" shape-rendering="crispEdges"/><rect fill="#0a0d0f" x="1171.2" y="465.1" width="48.8" height="24.65" shape-rendering="crispEdges"/><rect fill="#0a0d0f" x="0" y="489.5" width="48.8" height="24.65" shape-rendering="crispEdges"/><rect fill="#0a0d0f" x="48.8" y="489.5" width="195.2" height="24.65" shape-rendering="crispEdges"/><rect fill="#111518" x="244" y="489.5" width="12.2" height="24.65" shape-rendering="crispEdges"/><rect fill="#111518" x="256.2" y="489.5" width="48.8" height="24.65" shape-rendering="crispEdges"/><rect fill="#111518" x="305" y="489.5" width="24.4" height="24.65" shape-rendering="crispEdges"/><rect fill="#111518" x="329.4" y="489.5" width="12.2" height="24.65" shape-rendering="crispEdges"/><rect fill="#111518" x="341.6" y="489.5" width="329.4" height="24.65" shape-rendering="crispEdges"/><rect fill="#111518" x="671" y="489.5" width="219.6" height="24.65" shape-rendering="crispEdges"/><rect fill="#000000" x="890.6" y="489.5" width="24.4" height="24.65" shape-rendering="crispEdges"/><rect fill="#111518" x="915" y="489.5" width="48.8" height="24.65" shape-rendering="crispEdges"/><rect fill="#111518" x="963.8" y="489.5" width="12.2" height="24.65" shape-rendering="crispEdges"/><rect fill="#0a0d0f" x="976" y="489.5" width="195.2" height="24.65" shape-rendering="crispEdges"/><rect fill="#0a0d0f" x="1171.2" y="489.5" width="48.8" height="24.65" shape-rendering="crispEdges"/><rect fill="#0a0d0f" x="0" y="513.9" width="48.8" height="24.65" shape-rendering="crispEdges"/><rect fill="#0a0d0f" x="48.8" y="513.9" width="195.2" height="24.65" shape-rendering="crispEdges"/><rect fill="#111518" x="244" y="513.9" width="12.2" height="24.65" shape-rendering="crispEdges"/><rect fill="#111518" x="256.2" y="513.9" width="48.8" height="24.65" shape-rendering="crispEdges"/><rect fill="#111518" x="305" y="513.9" width="24.4" height="24.65" shape-rendering="crispEdges"/><rect fill="#111518" x="329.4" y="513.9" width="12.2" height="24.65" shape-rendering="crispEdges"/><rect fill="#111518" x="341.6" y="513.9" width="231.8" height="24.65" shape-rendering="crispEdges"/><rect fill="#111518" x="573.4" y="513.9" width="317.2" height="24.65" shape-rendering="crispEdges"/><rect fill="#000000" x="890.6" y="513.9" width="24.4" height="24.65" shape-rendering="crispEdges"/><rect fill="#111518" x="915" y="513.9" width="48.8" height="24.65" shape-rendering="crispEdges"/><rect fill="#111518" x="963.8" y="513.9" width="12.2" height="24.65" shape-rendering="crispEdges"/><rect fill="#0a0d0f" x="976" y="513.9" width="195.2" height="24.65" shape-rendering="crispEdges"/><rect fill="#0a0d0f" x="1171.2" y="513.9" width="48.8" height="24.65" shape-rendering="crispEdges"/><rect fill="#0a0d0f" x="0" y="538.3" width="48.8" height="24.65" shape-rendering="crispEdges"/><rect fill="#0a0d0f" x="48.8" y="538.3" width="195.2" height="24.65" shape-rendering="crispEdges"/><rect fill="#111518" x="244" y="538.3" width="12.2" height="24.65" shape-rendering="crispEdges"/><rect fill="#111518" x="256.2" y="538.3" width="707.6" height="24.65" shape-rendering="crispEdges"/><rect fill="#111518" x="963.8" y="538.3" width="12.2" height="24.65" shape-rendering="crispEdges"/><rect fill="#0a0d0f" x="976" y="538.3" width="195.2" height="24.65" shape-rendering="crispEdges"/><rect fill="#0a0d0f" x="1171.2" y="538.3" width="48.8" height="24.65" shape-rendering="crispEdges"/><rect fill="#0a0d0f" x="0" y="562.7" width="48.8" height="24.65" shape-rendering="crispEdges"/><rect fill="#0a0d0f" x="48.8" y="562.7" width="195.2" height="24.65" shape-rendering="crispEdges"/><rect fill="#111518" x="244" y="562.7" width="12.2" height="24.65" shape-rendering="crispEdges"/><rect fill="#111518" x="256.2" y="562.7" width="707.6" height="24.65" shape-rendering="crispEdges"/><rect fill="#111518" x="963.8" y="562.7" width="12.2" height="24.65" shape-rendering="crispEdges"/><rect fill="#0a0d0f" x="976" y="562.7" width="195.2" height="24.65" shape-rendering="crispEdges"/><rect fill="#0a0d0f" x="1171.2" y="562.7" width="48.8" height="24.65" shape-rendering="crispEdges"/><rect fill="#0a0d0f" x="0" y="587.1" width="48.8" height="24.65" shape-rendering="crispEdges"/><rect fill="#0a0d0f" x="48.8" y="587.1" width="195.2" height="24.65" shape-rendering="crispEdges"/><rect fill="#111518" x="244" y="587.1" width="12.2" height="24.65" shape-rendering="crispEdges"/><rect fill="#111518" x="256.2" y="587.1" width="707.6" height="24.65" shape-rendering="crispEdges"/><rect fill="#111518" x="963.8" y="587.1" width="12.2" height="24.65" shape-rendering="crispEdges"/><rect fill="#0a0d0f" x="976" y="587.1" width="195.2" height="24.65" shape-rendering="crispEdges"/><rect fill="#0a0d0f" x="1171.2" y="587.1" width="48.8" height="24.65" shape-rendering="crispEdges"/><rect fill="#0a0d0f" x="0" y="611.5" width="48.8" height="24.65" shape-rendering="crispEdges"/><rect fill="#0a0d0f" x="48.8" y="611.5" width="1122.4" height="24.65" shape-rendering="crispEdges"/><rect fill="#0a0d0f" x="1171.2" y="611.5" width="48.8" height="24.65" shape-rendering="crispEdges"/><rect fill="#0a0d0f" x="0" y="635.9" width="48.8" height="24.65" shape-rendering="crispEdges"/><rect fill="#0a0d0f" x="48.8" y="635.9" width="1122.4" height="24.65" shape-rendering="crispEdges"/><rect fill="#0a0d0f" x="1171.2" y="635.9" width="48.8" height="24.65" shape-rendering="crispEdges"/><rect fill="#0a0d0f" x="0" y="660.3" width="48.8" height="24.65" shape-rendering="crispEdges"/><rect fill="#0a0d0f" x="48.8" y="660.3" width="1122.4" height="24.65" shape-rendering="crispEdges"/><rect fill="#0a0d0f" x="1171.2" y="660.3" width="48.8" height="24.65" shape-rendering="crispEdges"/><rect fill="#0a0d0f" x="0" y="684.7" width="48.8" height="24.65" shape-rendering="crispEdges"/><rect fill="#0a0d0f" x="48.8" y="684.7" width="1122.4" height="24.65" shape-rendering="crispEdges"/><rect fill="#0a0d0f" x="1171.2" y="684.7" width="48.8" height="24.65" shape-rendering="crispEdges"/><rect fill="#0a0d0f" x="0" y="709.1" width="48.8" height="24.65" shape-rendering="crispEdges"/><rect fill="#0a0d0f" x="48.8" y="709.1" width="1122.4" height="24.65" shape-rendering="crispEdges"/><rect fill="#0a0d0f" x="1171.2" y="709.1" width="48.8" height="24.65" shape-rendering="crispEdges"/><rect fill="#0a0d0f" x="0" y="733.5" width="48.8" height="24.65" shape-rendering="crispEdges"/><rect fill="#0a0d0f" x="48.8" y="733.5" width="1122.4" height="24.65" shape-rendering="crispEdges"/><rect fill="#0a0d0f" x="1171.2" y="733.5" width="48.8" height="24.65" shape-rendering="crispEdges"/><rect fill="#0a0d0f" x="0" y="757.9" width="1220" height="24.65" shape-rendering="crispEdges"/>
    <g class="terminal-1673609737-matrix">
    <text class="terminal-1673609737-r1" x="1220" y="20" textLength="12.2" clip-path="url(#terminal-1673609737-line-0)">
</text><text class="terminal-1673609737-r2" x="244" y="44.4" textLength="12.2" clip-path="url(#terminal-1673609737-line-1)">┌</text><text class="terminal-1673609737-r2" x="256.2" y="44.4" textLength="707.6" clip-path="url(#terminal-1673609737-line-1)">──────────────────────────────────────────────────────────</text><text class="terminal-1673609737-r2" x="963.8" y="44.4" textLength="12.2" clip-path="url(#terminal-1673609737-line-1)">┐</text><text class="terminal-1673609737-r1" x="1220" y="44.4" textLength="12.2" clip-path="url(#terminal-1673609737-line-1)">
</text><text class="terminal-1673609737-r2" x="244" y="68.8" textLength="12.2" clip-path="url(#terminal-1673609737-line-2)">│</text><text class="terminal-1673609737-r2" x="963.8" y="68.8" textLength="12.2" clip-path="url(#terminal-1673609737-line-2)">│</text><text class="terminal-1673609737-r1" x="1220" y="68.8" textLength="12.2" clip-path="url(#terminal-1673609737-line-2)">
</text><text class="terminal-1673609737-r2" x="244" y="93.2" textLength="12.2" clip-path="url(#terminal-1673609737-line-3)">│</text><text class="terminal-1673609737-r2" x="963.8" y="93.2" textLength="12.2" clip-path="url(#terminal-1673609737-line-3)">│</text><text class="terminal-1673609737-r1" x="1220" y="93.2" textLength="12.2" clip-path="url(#terminal-1673609737-line-3)">
</text><text class="terminal-1673609737-r2" x="244" y="117.6" textLength="12.2" clip-path="url(#terminal-1673609737-line-4)">│</text><text class="terminal-1673609737-r3" x="305" y="117.6" textLength="329.4" clip-path="url(#terminal-1673609737-line-4)">IRONDOME&#160;KEYBOARD&#160;SHORTCUTS</text><text class="terminal-1673609737-r2" x="963.8" y="117.6" textLength="12.2" clip-path="url(#terminal-1673609737-line-4)">│</text><text class="terminal-1673609737-r1" x="1220" y="117.6" textLength="12.2" clip-path="url(#terminal-1673609737-line-4)">
</text><text class="terminal-1673609737-r2" x="244" y="142" textLength="12.2" clip-path="url(#terminal-1673609737-line-5)">│</text><text class="terminal-1673609737-r2" x="963.8" y="142" textLength="12.2" clip-path="url(#terminal-1673609737-line-5)">│</text><text class="terminal-1673609737-r1" x="1220" y="142" textLength="12.2" clip-path="url(#terminal-1673609737-line-5)">
</text><text class="terminal-1673609737-r2" x="244" y="166.4" textLength="12.2" clip-path="url(#terminal-1673609737-line-6)">│</text><text class="terminal-1673609737-r6" x="305" y="166.4" textLength="122" clip-path="url(#terminal-1673609737-line-6)">NAVIGATION</text><text class="terminal-1673609737-r2" x="963.8" y="166.4" textLength="12.2" clip-path="url(#terminal-1673609737-line-6)">│</text><text class="terminal-1673609737-r1" x="1220" y="166.4" textLength="12.2" clip-path="url(#terminal-1673609737-line-6)">
</text><text class="terminal-1673609737-r2" x="244" y="190.8" textLength="12.2" clip-path="url(#terminal-1673609737-line-7)">│</text><text class="terminal-1673609737-r7" x="329.4" y="190.8" textLength="109.8" clip-path="url(#terminal-1673609737-line-7)">Up&#160;/&#160;Down</text><text class="terminal-1673609737-r5" x="439.2" y="190.8" textLength="317.2" clip-path="url(#terminal-1673609737-line-7)">&#160;&#160;&#160;&#160;&#160;&#160;&#160;&#160;Move&#160;between&#160;items</text><text class="terminal-1673609737-r2" x="963.8" y="190.8" textLength="12.2" clip-path="url(#terminal-1673609737-line-7)">│</text><text class="terminal-1673609737-r1" x="1220" y="190.8" textLength="12.2" clip-path="url(#terminal-1673609737-line-7)">
</text><text class="terminal-1673609737-r2" x="244" y="215.2" textLength="12.2" clip-path="url(#terminal-1673609737-line-8)">│</text><text class="terminal-1673609737-r7" x="329.4" y="215.2" textLength="48.8" clip-path="url(#terminal-1673609737-line-8)">Left</text><text class="terminal-1673609737-r5" x="378.2" y="215.2" textLength="244" clip-path="url(#terminal-1673609737-line-8)">&#160;&#160;&#160;&#160;&#160;&#160;&#160;&#160;&#160;&#160;&#160;&#160;&#160;Go&#160;back</text><text class="terminal-1673609737-r2" x="963.8" y="215.2" textLength="12.2" clip-path="url(#terminal-1673609737-line-8)">│</text><text class="terminal-1673609737-r1" x="1220" y="215.2" textLength="12.2" clip-path="url(#terminal-1673609737-line-8)">
</text><text class="terminal-1673609737-r2" x="244" y="239.6" textLength="12.2" clip-path="url(#terminal-1673609737-line-9)">│</text><text class="terminal-1673609737-r7" x="329.4" y="239.6" textLength="61" clip-path="url(#terminal-1673609737-line-9)">Right</text><text class="terminal-1673609737-r5" x="390.4" y="239.6" textLength="292.8" clip-path="url(#terminal-1673609737-line-9)">&#160;&#160;&#160;&#160;&#160;&#160;&#160;&#160;&#160;&#160;&#160;&#160;Open&#160;/&#160;enter</text><text class="terminal-1673609737-r2" x="963.8" y="239.6" textLength="12.2" clip-path="url(#terminal-1673609737-line-9)">│</text><text class="terminal-1673609737-r1" x="1220" y="239.6" textLength="12.2" clip-path="url(#terminal-1673609737-line-9)">
</text><text class="terminal-1673609737-r2" x="244" y="264" textLength="12.2" clip-path="url(#terminal-1673609737-line-10)">│</text><text class="terminal-1673609737-r7" x="329.4" y="264" textLength="183" clip-path="url(#terminal-1673609737-line-10)">Tab&#160;/&#160;Shift+Tab</text><text class="terminal-1673609737-r5" x="512.4" y="264" textLength="280.6" clip-path="url(#terminal-1673609737-line-10)">&#160;&#160;Next&#160;/&#160;previous&#160;panel</text><text class="terminal-1673609737-r8" x="890.6" y="264" textLength="24.4" clip-path="url(#terminal-1673609737-line-10)">▂▂</text><text class="terminal-1673609737-r2" x="963.8" y="264" textLength="12.2" clip-path="url(#terminal-1673609737-line-10)">│</text><text class="terminal-1673609737-r1" x="1220" y="264" textLength="12.2" clip-path="url(#terminal-1673609737-line-10)">
</text><text class="terminal-1673609737-r2" x="244" y="288.4" textLength="12.2" clip-path="url(#terminal-1673609737-line-11)">│</text><text class="terminal-1673609737-r7" x="329.4" y="288.4" textLength="61" clip-path="url(#terminal-1673609737-line-11)">Enter</text><text class="terminal-1673609737-r5" x="390.4" y="288.4" textLength="427" clip-path="url(#terminal-1673609737-line-11)">&#160;&#160;&#160;&#160;&#160;&#160;&#160;&#160;&#160;&#160;&#160;&#160;Confirm&#160;/&#160;open&#160;selected</text><text class="terminal-1673609737-r2" x="963.8" y="288.4" textLength="12.2" clip-path="url(#terminal-1673609737-line-11)">│</text><text class="terminal-1673609737-r1" x="1220" y="288.4" textLength="12.2" clip-path="url(#terminal-1673609737-line-11)">
</text><text class="terminal-1673609737-r2" x="244" y="312.8" textLength="12.2" clip-path="url(#terminal-1673609737-line-12)">│</text><text class="terminal-1673609737-r7" x="329.4" y="312.8" textLength="36.6" clip-path="url(#terminal-1673609737-line-12)">Esc</text><text class="terminal-1673609737-r5" x="366" y="312.8" textLength="329.4" clip-path="url(#terminal-1673609737-line-12)">&#160;&#160;&#160;&#160;&#160;&#160;&#160;&#160;&#160;&#160;&#160;&#160;&#160;&#160;Back&#160;/&#160;cancel</text><text class="terminal-1673609737-r2" x="963.8" y="312.8" textLength="12.2" clip-path="url(#terminal-1673609737-line-12)">│</text><text class="terminal-1673609737-r1" x="1220" y="312.8" textLength="12.2" clip-path="url(#terminal-1673609737-line-12)">
</text><text class="terminal-1673609737-r2" x="244" y="337.2" textLength="12.2" clip-path="url(#terminal-1673609737-line-13)">│</text><text class="terminal-1673609737-r7" x="329.4" y="337.2" textLength="61" clip-path="url(#terminal-1673609737-line-13)">Space</text><text class="terminal-1673609737-r5" x="390.4" y="337.2" textLength="439.2" clip-path="url(#terminal-1673609737-line-13)">&#160;&#160;&#160;&#160;&#160;&#160;&#160;&#160;&#160;&#160;&#160;&#160;Toggle&#160;(reveal&#160;password,</text><text class="terminal-1673609737-r2" x="963.8" y="337.2" textLength="12.2" clip-path="url(#terminal-1673609737-line-13)">│</text><text class="terminal-1673609737-r1" x="1220" y="337.2" textLength="12.2" clip-path="url(#terminal-1673609737-line-13)">
</text><text class="terminal-1673609737-r2" x="244" y="361.6" textLength="12.2" clip-path="url(#terminal-1673609737-line-14)">│</text><text class="terminal-1673609737-r5" x="305" y="361.6" textLength="85.4" clip-path="url(#terminal-1673609737-line-14)">switch)</text><text class="terminal-1673609737-r2" x="963.8" y="361.6" textLength="12.2" clip-path="url(#terminal-1673609737-line-14)">│</text><text class="terminal-1673609737-r1" x="1220" y="361.6" textLength="12.2" clip-path="url(#terminal-1673609737-line-14)">
</text><text class="terminal-1673609737-r2" x="244" y="386" textLength="12.2" clip-path="url(#terminal-1673609737-line-15)">│</text><text class="terminal-1673609737-r2" x="963.8" y="386" textLength="12.2" clip-path="url(#terminal-1673609737-line-15)">│</text><text class="terminal-1673609737-r1" x="1220" y="386" textLength="12.2" clip-path="url(#terminal-1673609737-line-15)">
</text><text class="terminal-1673609737-r2" x="244" y="410.4" textLength="12.2" clip-path="url(#terminal-1673609737-line-16)">│</text><text class="terminal-1673609737-r6" x="305" y="410.4" textLength="109.8" clip-path="url(#terminal-1673609737-line-16)">DASHBOARD</text><text class="terminal-1673609737-r2" x="963.8" y="410.4" textLength="12.2" clip-path="url(#terminal-1673609737-line-16)">│</text><text class="terminal-1673609737-r1" x="1220" y="410.4" textLength="12.2" clip-path="url(#terminal-1673609737-line-16)">
</text><text class="terminal-1673609737-r2" x="244" y="434.8" textLength="12.2" clip-path="url(#terminal-1673609737-line-17)">│</text><text class="terminal-1673609737-r7" x="329.4" y="434.8" textLength="12.2" clip-path="url(#terminal-1673609737-line-17)">1</text><text class="terminal-1673609737-r5" x="341.6" y="434.8" textLength="414.8" clip-path="url(#terminal-1673609737-line-17)">&#160;&#160;&#160;&#160;&#160;&#160;&#160;&#160;&#160;&#160;&#160;Vault&#160;(browse&#160;&amp;&#160;search)</text><text class="terminal-1673609737-r2" x="963.8" y="434.8" textLength="12.2" clip-path="url(#terminal-1673609737-line-17)">│</text><text class="terminal-1673609737-r1" x="1220" y="434.8" textLength="12.2" clip-path="url(#terminal-1673609737-line-17)">
</text><text class="terminal-1673609737-r2" x="244" y="459.2" textLength="12.2" clip-path="url(#terminal-1673609737-line-18)">│</text><text class="terminal-1673609737-r7" x="329.4" y="459.2" textLength="12.2" clip-path="url(#terminal-1673609737-line-18)">2</text><text class="terminal-1673609737-r5" x="341.6" y="459.2" textLength="244" clip-path="url(#terminal-1673609737-line-18)">&#160;&#160;&#160;&#160;&#160;&#160;&#160;&#160;&#160;&#160;&#160;Generator</text><text class="terminal-1673609737-r2" x="963.8" y="459.2" textLength="12.2" clip-path="url(#terminal-1673609737-line-18)">│</text><text class="terminal-1673609737-r1" x="1220" y="459.2" textLength="12.2" clip-path="url(#terminal-1673609737-line-18)">
</text><text class="terminal-1673609737-r2" x="244" y="483.6" textLength="12.2" clip-path="url(#terminal-1673609737-line-19)">│</text><text class="terminal-1673609737-r7" x="329.4" y="483.6" textLength="12.2" clip-path="url(#terminal-1673609737-line-19)">3</text><text class="terminal-1673609737-r5" x="341.6" y="483.6" textLength="244" clip-path="url(#terminal-1673609737-line-19)">&#160;&#160;&#160;&#160;&#160;&#160;&#160;&#160;&#160;&#160;&#160;New&#160;Entry</text><text class="terminal-1673609737-r2" x="963.8" y="483.6" textLength="12.2" clip-path="url(#terminal-1673609737-line-19)">│</text><text class="terminal-1673609737-r1" x="1220" y="483.6" textLength="12.2" clip-path="url(#terminal-1673609737-line-19)">
</text><text class="terminal-1673609737-r2" x="244" y="508" textLength="12.2" clip-path="url(#terminal-1673609737-line-20)">│</text><text class="terminal-1673609737-r7" x="329.4" y="508" textLength="12.2" clip-path="url(#terminal-1673609737-line-20)">4</text><text class="terminal-1673609737-r5" x="341.6" y="508" textLength="329.4" clip-path="url(#terminal-1673609737-line-20)">&#160;&#160;&#160;&#160;&#160;&#160;&#160;&#160;&#160;&#160;&#160;Fortify&#160;(backup)</text><text class="terminal-1673609737-r2" x="963.8" y="508" textLength="12.2" clip-path="url(#terminal-1673609737-line-20)">│</text><text class="terminal-1673609737-r1" x="1220" y="508" textLength="12.2" clip-path="url(#terminal-1673609737-line-20)">
</text><text class="terminal-1673609737-r2" x="244" y="532.4" textLength="12.2" clip-path="url(#terminal-1673609737-line-21)">│</text><text class="terminal-1673609737-r7" x="329.4" y="532.4" textLength="12.2" clip-path="url(#terminal-1673609737-line-21)">5</text><text class="terminal-1673609737-r5" x="341.6" y="532.4" textLength="231.8" clip-path="url(#terminal-1673609737-line-21)">&#160;&#160;&#160;&#160;&#160;&#160;&#160;&#160;&#160;&#160;&#160;Settings</text><text class="terminal-1673609737-r2" x="963.8" y="532.4" textLength="12.2" clip-path="url(#terminal-1673609737-line-21)">│</text><text class="terminal-1673609737-r1" x="1220" y="532.4" textLength="12.2" clip-path="url(#terminal-1673609737-line-21)">
</text><text class="terminal-1673609737-r2" x="244" y="556.8" textLength="12.2" clip-path="url(#terminal-1673609737-line-22)">│</text><text class="terminal-1673609737-r2" x="963.8" y="556.8" textLength="12.2" clip-path="url(#terminal-1673609737-line-22)">│</text><text class="terminal-1673609737-r1" x="1220" y="556.8" textLength="12.2" clip-path="url(#terminal-1673609737-line-22)">
</text><text class="terminal-1673609737-r2" x="244" y="581.2" textLength="12.2" clip-path="url(#terminal-1673609737-line-23)">│</text><text class="terminal-1673609737-r2" x="963.8" y="581.2" textLength="12.2" clip-path="url(#terminal-1673609737-line-23)">│</text><text class="terminal-1673609737-r1" x="1220" y="581.2" textLength="12.2" clip-path="url(#terminal-1673609737-line-23)">
</text><text class="terminal-1673609737-r2" x="244" y="605.6" textLength="12.2" clip-path="url(#terminal-1673609737-line-24)">└</text><text class="terminal-1673609737-r2" x="256.2" y="605.6" textLength="707.6" clip-path="url(#terminal-1673609737-line-24)">──────────────────────────────────────────────────────────</text><text class="terminal-1673609737-r2" x="963.8" y="605.6" textLength="12.2" clip-path="url(#terminal-1673609737-line-24)">┘</text><text class="terminal-1673609737-r1" x="1220" y="605.6" textLength="12.2" clip-path="url(#terminal-1673609737-line-24)">
</text><text class="terminal-1673609737-r1" x="1220" y="630" textLength="12.2" clip-path="url(#terminal-1673609737-line-25)">
</text><text class="terminal-1673609737-r1" x="1220" y="654.4" textLength="12.2" clip-path="url(#terminal-1673609737-line-26)">
</text><text class="terminal-1673609737-r1" x="1220" y="678.8" textLength="12.2" clip-path="url(#terminal-1673609737-line-27)">
</text><text class="terminal-1673609737-r1" x="1220" y="703.2" textLength="12.2" clip-path="url(#terminal-1673609737-line-28)">
</text><text class="terminal-1673609737-r1" x="1220" y="727.6" textLength="12.2" clip-path="url(#terminal-1673609737-line-29)">
</text><text class="terminal-1673609737-r1" x="1220" y="752" textLength="12.2" clip-path="url(#terminal-1673609737-line-30)">
</text>
    </g>
    </g>
</svg>
